<svg width="320" height="40" viewBox="0 0 320 40" fill="none" xmlns="http://www.w3.org/2000/svg">
<path d="M25.8427 24.6274H27.514V15.2796H25.8492L23.407 16.9898V18.5963L25.7326 16.9639H25.8427V24.6274Z" fill="#111111"/>
<path d="M33.4349 24.8541C35.8124 24.8541 37.2246 22.9949 37.2246 19.8466C37.2246 18.6611 36.9978 17.6635 36.5638 16.8926C35.9355 15.6942 34.8536 15.0464 33.4868 15.0464C31.4527 15.0464 30.0146 16.4132 30.0146 18.3307C30.0146 20.1316 31.3102 21.4402 33.0916 21.4402C34.1864 21.4402 35.0739 20.9284 35.5144 20.0409H35.5338C35.5338 20.0409 35.5597 20.0409 35.5662 20.0409C35.5792 20.0409 35.6245 20.0409 35.6245 20.0409C35.6245 22.1787 34.8148 23.4548 33.4479 23.4548C32.6446 23.4548 32.0227 23.0143 31.809 22.3082H30.1441C30.4227 23.8435 31.7247 24.8541 33.4349 24.8541ZM33.4932 20.1122C32.4179 20.1122 31.6535 19.3478 31.6535 18.2789C31.6535 17.236 32.4568 16.4392 33.4997 16.4392C34.5427 16.4392 35.346 17.2489 35.346 18.3048C35.346 19.3478 34.5621 20.1122 33.4932 20.1122Z" fill="#111111"/>
<path d="M40.1591 23.6362C40.7745 23.6362 41.1956 23.1957 41.1956 22.6127C41.1956 22.0232 40.7745 21.5892 40.1591 21.5892C39.5502 21.5892 39.1226 22.0232 39.1226 22.6127C39.1226 23.1957 39.5502 23.6362 40.1591 23.6362ZM40.1591 18.7777C40.7745 18.7777 41.1956 18.3437 41.1956 17.7607C41.1956 17.1712 40.7745 16.7371 40.1591 16.7371C39.5502 16.7371 39.1226 17.1712 39.1226 17.7607C39.1226 18.3437 39.5502 18.7777 40.1591 18.7777Z" fill="#111111"/>
<path d="M46.689 24.8606C48.9239 24.8606 50.2519 23.0467 50.2519 19.9567C50.2519 16.8538 48.9044 15.0464 46.689 15.0464C44.467 15.0464 43.1196 16.8538 43.1196 19.9438C43.1196 23.0467 44.4476 24.8606 46.689 24.8606ZM46.689 23.4743C45.5035 23.4743 44.8103 22.2435 44.8103 19.9438C44.8103 17.6635 45.5164 16.4392 46.689 16.4392C47.8615 16.4392 48.5611 17.657 48.5611 19.9438C48.5611 22.2435 47.8744 23.4743 46.689 23.4743Z" fill="#111111"/>
<path d="M51.988 18.0133V18.0392H53.5556V18.0133C53.5556 17.061 54.2164 16.4197 55.1946 16.4197C56.1145 16.4197 56.7882 17.0157 56.7882 17.8384C56.7882 18.4992 56.4708 18.985 55.1946 20.2806L52.0787 23.4678V24.6274H58.5696V23.2087H54.3719V23.0986L56.3282 21.1357C57.9153 19.568 58.4271 18.7389 58.4271 17.7348C58.4271 16.1736 57.0926 15.0464 55.2464 15.0464C53.3289 15.0464 51.988 16.2643 51.988 18.0133Z" fill="#111111"/>
<path opacity="0.44" fill-rule="evenodd" clip-rule="evenodd" d="M304.454 18.8783L304.861 19.1495C305.435 19.5327 305.78 20.1777 305.78 20.8684C305.78 21.5591 305.435 22.2041 304.861 22.5872L304.454 22.8584V18.8783ZM285.733 15.7827H301.948C302.843 15.7827 303.569 16.5747 303.569 17.5516V24.1851C303.569 25.1621 302.843 25.9541 301.948 25.9541H285.733C284.837 25.9541 284.111 25.1621 284.111 24.1851V17.5516C284.111 16.5747 284.837 15.7827 285.733 15.7827ZM285.8 16.6672C285.356 16.6672 284.996 17.0632 284.996 17.5516V24.1851C284.996 24.6736 285.356 25.0696 285.8 25.0696H301.881C302.325 25.0696 302.685 24.6736 302.685 24.1851V17.5516C302.685 17.0632 302.325 16.6672 301.881 16.6672H285.8Z" fill="#111111"/>
<path fill-rule="evenodd" clip-rule="evenodd" d="M286.654 17.5515H298.262V24.185H286.654C286.226 24.185 285.88 23.789 285.88 23.3005V18.436C285.88 17.9475 286.226 17.5515 286.654 17.5515Z" fill="#111111"/>
<path fill-rule="evenodd" clip-rule="evenodd" d="M259.788 16.6672C259.3 16.6672 258.904 17.0632 258.904 17.5517V24.6274C258.904 25.1159 259.3 25.5119 259.788 25.5119H260.673C261.161 25.5119 261.557 25.1159 261.557 24.6274V17.5517C261.557 17.0632 261.161 16.6672 260.673 16.6672H259.788ZM254.924 19.3206C254.924 18.8322 255.32 18.4362 255.808 18.4362H256.692C257.181 18.4362 257.577 18.8322 257.577 19.3206V24.6274C257.577 25.1159 257.181 25.5119 256.692 25.5119H255.808C255.32 25.5119 254.924 25.1159 254.924 24.6274V19.3206ZM251.828 20.2051C251.339 20.2051 250.943 20.6011 250.943 21.0896V24.6274C250.943 25.1159 251.339 25.5119 251.828 25.5119H252.712C253.201 25.5119 253.597 25.1159 253.597 24.6274V21.0896C253.597 20.6011 253.201 20.2051 252.712 20.2051H251.828ZM247.848 25.5119C247.359 25.5119 246.963 25.1159 246.963 24.6274V22.4163C246.963 21.9278 247.359 21.5318 247.848 21.5318H248.732C249.221 21.5318 249.617 21.9278 249.617 22.4163V24.6274C249.617 25.1159 249.221 25.5119 248.732 25.5119H247.848Z" fill="#111111"/>
<path d="M273.176 17.7969C275.136 17.797 277.021 18.5501 278.441 19.9005C278.548 20.0047 278.719 20.0034 278.825 19.8975L279.847 18.8657C279.9 18.812 279.93 18.7392 279.93 18.6635C279.929 18.5878 279.899 18.5154 279.845 18.4623C276.117 14.8895 270.235 14.8895 266.507 18.4623C266.453 18.5154 266.422 18.5878 266.422 18.6634C266.421 18.7391 266.451 18.8119 266.504 18.8657L267.527 19.8975C267.632 20.0036 267.803 20.0049 267.91 19.9005C269.331 18.55 271.216 17.7969 273.176 17.7969ZM273.176 21.1541C274.253 21.154 275.291 21.5542 276.09 22.277C276.198 22.3796 276.368 22.3774 276.473 22.272L277.494 21.2401C277.548 21.186 277.578 21.1126 277.577 21.0363C277.576 20.96 277.545 20.8872 277.49 20.8342C275.059 18.5732 271.295 18.5732 268.864 20.8342C268.81 20.8872 268.778 20.96 268.777 21.0364C268.777 21.1127 268.807 21.1861 268.861 21.2401L269.882 22.272C269.987 22.3774 270.157 22.3796 270.265 22.277C271.062 21.5547 272.1 21.1545 273.176 21.1541ZM275.139 23.6167C275.193 23.5631 275.224 23.4893 275.222 23.4128C275.22 23.3363 275.187 23.2638 275.131 23.2125C274.002 22.2583 272.35 22.2583 271.222 23.2125C271.165 23.2638 271.132 23.3362 271.13 23.4128C271.129 23.4893 271.159 23.5631 271.213 23.6167L272.98 25.3995C273.032 25.4519 273.103 25.4814 273.176 25.4814C273.25 25.4814 273.32 25.4519 273.372 25.3995L275.139 23.6167Z" fill="#111111"/>
</svg>
