<svg width="56" height="57" viewBox="0 0 56 57" fill="none" xmlns="http://www.w3.org/2000/svg">
<rect x="0.4375" y="0.731934" width="55.125" height="55.125" rx="10.0625" fill="white" fill-opacity="0.3"/>
<path d="M13.54 20.651L28.1192 29.0881L42.5994 20.7005" stroke="white" stroke-width="1.3151" stroke-linecap="round" stroke-linejoin="round"/>
<path d="M28.1199 44.0475V29.072" stroke="white" stroke-width="1.3151" stroke-linecap="round" stroke-linejoin="round"/>
<path d="M24.6993 12.462L15.8824 17.3658C13.8846 18.472 12.25 21.2458 12.25 23.5244V32.8531C12.25 35.1316 13.8846 37.9055 15.8824 39.0117L24.6993 43.9155C26.5815 44.9557 29.6691 44.9557 31.5513 43.9155L40.3682 39.0117C42.3661 37.9055 44.0006 35.1316 44.0006 32.8531V23.5244C44.0006 21.2458 42.3661 18.472 40.3682 17.3658L31.5513 12.462C29.6526 11.4053 26.5815 11.4053 24.6993 12.462Z" stroke="white" stroke-width="1.3151" stroke-linecap="round" stroke-linejoin="round"/>
<path d="M36.3725 30.2279V24.1849L20.7036 15.1368" stroke="white" stroke-width="1.3151" stroke-linecap="round" stroke-linejoin="round"/>
<rect x="0.4375" y="0.731934" width="55.125" height="55.125" rx="10.0625" stroke="white" stroke-width="0.875"/>
</svg>
