<svg width="56" height="57" viewBox="0 0 56 57" fill="none" xmlns="http://www.w3.org/2000/svg">
<rect x="0.4375" y="0.731934" width="55.125" height="55.125" rx="10.0625" fill="white" fill-opacity="0.3"/>
<rect x="0.4375" y="0.731934" width="55.125" height="55.125" rx="10.0625" stroke="white" stroke-width="0.875"/>
<path d="M15.084 24.2114V42.0591" stroke="white" stroke-width="1.75" stroke-linecap="round" stroke-linejoin="round"/>
<path d="M38.5977 32.1425H41.5411C42.0813 32.1425 42.5196 31.7002 42.521 31.1536C42.5315 26.0888 42.5576 19.9717 40.4842 14.9069C40.3054 14.4697 39.8463 14.2213 39.3877 14.3136C38.9291 14.4059 38.5988 14.8132 38.599 15.2863V42.0579" stroke="white" stroke-width="1.75" stroke-linecap="round" stroke-linejoin="round"/>
<path d="M13.125 14.2944V22.2267C13.125 23.322 14.0024 24.2098 15.0847 24.2098V24.2098C16.167 24.2098 17.0444 23.322 17.0444 22.2267V14.2944" stroke="white" stroke-width="1.75" stroke-linecap="round" stroke-linejoin="round"/>
<path d="M33.7003 23.2638C30.3522 19.6271 24.7974 19.2232 20.97 22.3383" stroke="white" stroke-width="1.75" stroke-linecap="round" stroke-linejoin="round"/>
<path d="M19.9851 37.0576C21.7589 38.9827 24.2431 40.0758 26.8441 40.0758C29.4451 40.0758 31.9293 38.9827 33.7031 37.0576" stroke="white" stroke-width="1.75" stroke-linecap="round" stroke-linejoin="round"/>
</svg>
