<svg width="142" height="32" viewBox="0 0 142 32" fill="none" xmlns="http://www.w3.org/2000/svg">
<path d="M30.762 3.10666C33.5646 6.97629 35.145 11.3582 35.145 16C35.145 20.6418 33.5645 25.0237 30.762 28.8934C37.2497 26.4088 41.6533 21.5666 41.6533 16C41.6533 10.4335 37.2498 5.59124 30.762 3.10666Z" fill="#8DC63F"/>
<path d="M21.397 2.79907C20.455 1.8593 18.8502 1.35318 17.2408 1.54987C7.4473 2.74674 0 8.76088 0 15.9999C0 23.239 7.44725 29.2531 17.2407 30.45C18.8501 30.6467 20.4549 30.1406 21.3969 29.2008C25.1376 25.469 27.335 20.9152 27.335 15.9999C27.335 11.0847 25.1376 6.53086 21.397 2.79907Z" fill="#C6F867"/>
<path d="M50.8501 21.2656V20.125C50.8501 19.4635 51.0424 18.8906 51.427 18.4062C51.819 17.9219 52.3182 17.5417 52.9246 17.2656C53.5311 16.9896 54.2041 16.7526 54.9437 16.5547C55.6833 16.3568 56.4229 16.1979 57.1624 16.0781C57.9094 15.9531 58.5861 15.8281 59.1926 15.7031C60.5682 15.4115 61.256 14.9974 61.256 14.4609C61.256 13.8776 61.0416 13.4792 60.6126 13.2656C60.1836 13.0521 59.4588 12.9453 58.4382 12.9453H57.6506C56.2232 12.9453 55.2839 13.2656 54.8328 13.9062C54.4999 14.3958 54.0007 14.6406 53.3351 14.6406H52.0149C51.6525 14.6406 51.3715 14.5495 51.1718 14.3672C50.9721 14.1849 50.8723 13.987 50.8723 13.7734C50.8723 13.1797 51.194 12.6458 51.8374 12.1719C52.4883 11.6927 53.2944 11.3333 54.2559 11.0938C55.2173 10.8542 56.2195 10.7344 57.2623 10.7344H58.7599C62.0067 10.7344 64.0628 11.3698 64.9281 12.6406C65.2683 13.1406 65.4384 13.7214 65.4384 14.3828C65.4384 15.0443 65.2461 15.6068 64.8615 16.0703C64.4769 16.5339 63.9814 16.9036 63.3749 17.1797C62.7685 17.4505 62.0918 17.6849 61.3448 17.8828C60.6052 18.0807 59.8656 18.2448 59.126 18.375C58.3865 18.5 57.7134 18.6198 57.107 18.7344C55.724 19.0052 55.0324 19.3568 55.0324 19.7891H64.2403C64.5435 19.7891 64.7949 19.862 64.9946 20.0078C65.2017 20.1536 65.3053 20.3281 65.3053 20.5312V21.2656C65.3053 21.4688 65.198 21.6432 64.9835 21.7891C64.7765 21.9297 64.5287 22 64.2403 22H51.9262C51.6378 22 51.3863 21.9297 51.1718 21.7891C50.9573 21.6432 50.8501 21.4688 50.8501 21.2656Z" fill="black"/>
<path d="M66.4035 21.2812L69.1881 13.8438C69.9424 11.8177 72.3979 10.8021 76.5543 10.7969H82.5338C82.8075 10.7969 83.0331 10.8698 83.2106 11.0156C83.3955 11.1615 83.4879 11.3307 83.4879 11.5234V21.2812C83.4879 21.4844 83.3844 21.6562 83.1773 21.7969C82.9702 21.9323 82.7224 22 82.434 22H80.3484C80.0451 22 79.7937 21.9323 79.594 21.7969C79.4017 21.6562 79.3056 21.4792 79.3056 21.2656V19.2969H71.4179L70.6746 21.2656C70.6007 21.4792 70.4343 21.6562 70.1754 21.7969C69.9166 21.9323 69.6429 22 69.3545 22H67.169C66.8806 22 66.6735 21.9427 66.5478 21.8281C66.422 21.7083 66.3592 21.6042 66.3592 21.5156C66.3666 21.4271 66.3813 21.349 66.4035 21.2812ZM72.2388 17.0859H79.3056V13.0078H76.1438C75.4338 13.0078 74.8126 13.151 74.2801 13.4375C73.755 13.7188 73.4 14.099 73.2151 14.5781L72.2388 17.0859Z" fill="black"/>
<path d="M86.6607 21.2812V11.5547C86.6607 11.3411 86.7643 11.1615 86.9713 11.0156C87.1784 10.8698 87.4262 10.7969 87.7146 10.7969H89.8003C90.0887 10.7969 90.3328 10.8698 90.5324 11.0156C90.7395 11.1615 90.8431 11.3411 90.8431 11.5547V19.7891H100.506C100.794 19.7891 101.038 19.862 101.238 20.0078C101.445 20.1536 101.549 20.3281 101.549 20.5312V21.2656C101.549 21.4688 101.445 21.6432 101.238 21.7891C101.038 21.9297 100.794 22 100.506 22H87.7146C87.4262 22 87.1784 21.9323 86.9713 21.7969C86.7643 21.6562 86.6607 21.4844 86.6607 21.2812Z" fill="black"/>
<path d="M103.368 21.2812V11.5547C103.368 11.3411 103.471 11.1615 103.679 11.0156C103.886 10.8698 104.133 10.7969 104.422 10.7969H106.507C106.796 10.7969 107.04 10.8698 107.24 11.0156C107.447 11.1615 107.55 11.3411 107.55 11.5547V19.7891H117.213C117.501 19.7891 117.745 19.862 117.945 20.0078C118.152 20.1536 118.256 20.3281 118.256 20.5312V21.2656C118.256 21.4688 118.152 21.6432 117.945 21.7891C117.745 21.9297 117.501 22 117.213 22H104.422C104.133 22 103.886 21.9323 103.679 21.7969C103.471 21.6562 103.368 21.4844 103.368 21.2812Z" fill="black"/>
</svg>
