<svg width="19" height="19" viewBox="0 0 19 19" fill="none" xmlns="http://www.w3.org/2000/svg">
<rect width="18.0134" height="18.0134" transform="translate(0.310547 0.649414)" fill="white"/>
<g clip-path="url(#clip0_5693_38242)">
<path d="M9.70343 4.41668C9.57481 4.40718 9.44587 4.40242 9.31689 4.40242V3.65186C9.46441 3.65193 9.61187 3.65744 9.75897 3.66837L9.70343 4.41668ZM11.2076 4.75443C10.967 4.66159 10.7199 4.58658 10.4683 4.53001L10.6326 3.79746C10.9201 3.86201 11.2031 3.94758 11.4778 4.05416L11.2076 4.75443ZM12.2358 5.28733C12.1285 5.21576 12.0186 5.14816 11.9063 5.08467L12.2764 4.43169C12.533 4.5771 12.7786 4.74116 13.0112 4.92255L12.5496 5.51475C12.4478 5.43536 12.3432 5.35975 12.2358 5.28808V5.28733ZM13.6124 6.63083C13.4639 6.4199 13.3001 6.22021 13.1222 6.03338L13.6656 5.5155C13.8683 5.72941 14.0559 5.95833 14.2263 6.19851L13.6124 6.63083ZM14.1708 7.64559C14.1215 7.52659 14.0679 7.40943 14.0101 7.29432L14.6804 6.95657C14.8129 7.22008 14.9258 7.49303 15.0181 7.77318L14.3051 8.00811C14.2648 7.88566 14.22 7.76474 14.1708 7.64559ZM14.5686 9.52724C14.5625 9.2693 14.5374 9.01216 14.4935 8.75792L15.2328 8.63032C15.2831 8.92004 15.3124 9.21426 15.3199 9.50848L14.5693 9.52724H14.5686ZM14.4702 10.6816C14.495 10.554 14.5153 10.4272 14.531 10.2988L15.2763 10.3911C15.2403 10.684 15.1826 10.9737 15.1037 11.258L14.3802 11.0576C14.4147 10.9338 14.4447 10.8084 14.4702 10.6816ZM13.7557 12.4672C13.8938 12.2495 14.0154 12.0214 14.1205 11.7857L14.8065 12.0897C14.6864 12.3599 14.5475 12.6195 14.3899 12.8687L13.7557 12.4672ZM13.0322 13.3716C13.1237 13.28 13.2116 13.1855 13.2949 13.0879L13.8638 13.578C13.7674 13.6897 13.6671 13.7979 13.5628 13.9023L13.0322 13.3716Z" fill="#475467"/>
<path d="M9.31713 4.40242C8.45314 4.40248 7.60251 4.61561 6.84056 5.02293C6.07862 5.43026 5.42889 6.0192 4.94891 6.7376C4.46894 7.45599 4.17354 8.28167 4.08887 9.1415C4.00421 10.0013 4.1329 10.8688 4.46354 11.667C4.79418 12.4652 5.31657 13.1695 5.98444 13.7177C6.6523 14.2658 7.44503 14.6407 8.29242 14.8093C9.1398 14.9779 10.0157 14.9349 10.8425 14.6841C11.6693 14.4333 12.4214 13.9825 13.0324 13.3716L13.563 13.9023C12.8648 14.6009 12.0051 15.1165 11.06 15.4034C10.1148 15.6903 9.11355 15.7397 8.1448 15.5471C7.17605 15.3545 6.26975 14.926 5.5062 14.2995C4.74265 13.6729 4.14542 12.8677 3.76744 11.9552C3.38945 11.0427 3.24238 10.051 3.33926 9.0681C3.43613 8.08516 3.77396 7.14129 4.3228 6.32011C4.87165 5.49894 5.61457 4.82581 6.48574 4.36039C7.3569 3.89496 8.32943 3.65159 9.31713 3.65186V4.40242Z" fill="#475467"/>
<path d="M8.94169 5.90332C9.04122 5.90332 9.13667 5.94286 9.20705 6.01324C9.27743 6.08362 9.31697 6.17907 9.31697 6.2786V10.189L11.7548 11.5821C11.8387 11.6327 11.8995 11.7141 11.9241 11.8089C11.9488 11.9038 11.9354 12.0045 11.8868 12.0896C11.8382 12.1747 11.7582 12.2374 11.664 12.2643C11.5697 12.2912 11.4687 12.2801 11.3825 12.2335L8.75555 10.7324C8.69811 10.6996 8.65036 10.6522 8.61715 10.595C8.58393 10.5378 8.56643 10.4728 8.56641 10.4067V6.2786C8.56641 6.17907 8.60594 6.08362 8.67632 6.01324C8.7467 5.94286 8.84216 5.90332 8.94169 5.90332Z" fill="#475467"/>
</g>
<defs>
<clipPath id="clip0_5693_38242">
<rect width="12.009" height="12.009" fill="white" transform="translate(3.3125 3.65186)"/>
</clipPath>
</defs>
</svg>
