<svg width="24" height="25" viewBox="0 0 24 25" fill="none" xmlns="http://www.w3.org/2000/svg">
<rect width="24" height="24" transform="translate(0 0.794434)" fill="white"/>
<g clip-path="url(#clip0_6819_1462)">
<path d="M12.515 5.81343C12.3436 5.80078 12.1718 5.79444 12 5.79443V4.79443C12.1965 4.79453 12.393 4.80187 12.589 4.81643L12.515 5.81343ZM14.519 6.26343C14.1984 6.13974 13.8692 6.0398 13.534 5.96443L13.753 4.98843C14.136 5.07443 14.513 5.18843 14.879 5.33043L14.519 6.26343ZM15.889 6.97343C15.746 6.87808 15.5996 6.78802 15.45 6.70343L15.943 5.83343C16.2849 6.02717 16.6121 6.24576 16.922 6.48743L16.307 7.27643C16.1714 7.17066 16.032 7.06993 15.889 6.97443V6.97343ZM17.723 8.76343C17.5252 8.48241 17.3069 8.21635 17.07 7.96743L17.794 7.27743C18.064 7.56243 18.314 7.86743 18.541 8.18743L17.723 8.76343ZM18.467 10.1154C18.4014 9.95689 18.33 9.80079 18.253 9.64743L19.146 9.19743C19.3226 9.54852 19.473 9.91218 19.596 10.2854L18.646 10.5984C18.5923 10.4353 18.5326 10.2742 18.467 10.1154ZM18.997 12.6224C18.9889 12.2788 18.9555 11.9362 18.897 11.5974L19.882 11.4274C19.949 11.8134 19.988 12.2054 19.998 12.5974L18.998 12.6224H18.997ZM18.866 14.1604C18.899 13.9904 18.926 13.8214 18.947 13.6504L19.94 13.7734C19.892 14.1636 19.8151 14.5496 19.71 14.9284L18.746 14.6614C18.792 14.4964 18.832 14.3294 18.866 14.1604ZM17.914 16.5394C18.098 16.2494 18.26 15.9454 18.4 15.6314L19.314 16.0364C19.154 16.3964 18.969 16.7424 18.759 17.0744L17.914 16.5394ZM16.95 17.7444C17.072 17.6224 17.189 17.4964 17.3 17.3664L18.058 18.0194C17.9296 18.1683 17.7959 18.3124 17.657 18.4514L16.95 17.7444Z" fill="#475467"/>
<path d="M12 5.79443C10.8488 5.79452 9.71549 6.07848 8.70033 6.62117C7.68516 7.16386 6.8195 7.94853 6.18001 8.90568C5.54052 9.86283 5.14694 10.9629 5.03414 12.1085C4.92134 13.2541 5.0928 14.4098 5.53333 15.4733C5.97385 16.5368 6.66985 17.4752 7.55968 18.2055C8.4495 18.9358 9.50569 19.4353 10.6347 19.6599C11.7637 19.8845 12.9306 19.8272 14.0322 19.4931C15.1338 19.159 16.1359 18.5584 16.95 17.7444L17.6569 18.4514C16.7267 19.3822 15.5812 20.0692 14.322 20.4514C13.0628 20.8337 11.7287 20.8995 10.438 20.6429C9.14731 20.3864 7.93981 19.8154 6.9225 18.9807C5.90519 18.1459 5.10949 17.0731 4.60588 15.8573C4.10228 14.6415 3.90634 13.3203 4.0354 12.0107C4.16447 10.7011 4.61457 9.44353 5.34582 8.34945C6.07707 7.25537 7.06689 6.35854 8.22758 5.73844C9.38827 5.11833 10.684 4.79408 12 4.79443V5.79443Z" fill="#475467"/>
<path d="M11.5 7.79443C11.6326 7.79443 11.7598 7.84711 11.8536 7.94088C11.9473 8.03465 12 8.16183 12 8.29443V13.5044L15.248 15.3604C15.3598 15.4279 15.4408 15.5364 15.4736 15.6627C15.5065 15.7891 15.4886 15.9233 15.4238 16.0366C15.3591 16.15 15.2525 16.2335 15.127 16.2694C15.0014 16.3052 14.8669 16.2905 14.752 16.2284L11.252 14.2284C11.1755 14.1847 11.1119 14.1216 11.0676 14.0453C11.0234 13.9691 11 13.8826 11 13.7944V8.29443C11 8.16183 11.0527 8.03465 11.1464 7.94088C11.2402 7.84711 11.3674 7.79443 11.5 7.79443Z" fill="#475467"/>
</g>
<defs>
<clipPath id="clip0_6819_1462">
<rect width="16" height="16" fill="white" transform="translate(4 4.79443)"/>
</clipPath>
</defs>
</svg>
