<svg width="24" height="25" viewBox="0 0 24 25" fill="none" xmlns="http://www.w3.org/2000/svg">
<rect width="24" height="24" transform="translate(0 0.794434)" fill="white"/>
<path d="M5.59037 14.9176L4.37256 13.6998C3.87581 13.203 3.87581 12.3858 4.37256 11.8891L5.59037 10.6712C5.79869 10.4629 5.96694 10.0543 5.96694 9.76587V8.04327C5.96694 7.33822 6.54381 6.76137 7.24886 6.76137H8.97144C9.25987 6.76137 9.66849 6.59314 9.8768 6.38483L11.0946 5.16699C11.5914 4.67025 12.4086 4.67025 12.9053 5.16699L14.1232 6.38483C14.3315 6.59314 14.7401 6.76137 15.0285 6.76137H16.7511C17.4562 6.76137 18.033 7.33822 18.033 8.04327V9.76587C18.033 10.0543 18.2013 10.4629 18.4096 10.6712L19.6274 11.8891C20.1242 12.3858 20.1242 13.203 19.6274 13.6998L18.4096 14.9176C18.2013 15.1259 18.033 15.5346 18.033 15.823V17.5455C18.033 18.2506 17.4562 18.8275 16.7511 18.8275H15.0285C14.7401 18.8275 14.3315 18.9957 14.1232 19.204L12.9053 20.4219C12.4086 20.9186 11.5914 20.9186 11.0946 20.4219L9.8768 19.204C9.66849 18.9957 9.25987 18.8275 8.97144 18.8275H7.24886C6.54381 18.8275 5.96694 18.2506 5.96694 17.5455V15.823C5.96694 15.5265 5.79869 15.1179 5.59037 14.9176Z" stroke="#475467" stroke-width="1.20405" stroke-linecap="round" stroke-linejoin="round"/>
<path d="M9.60522 15.1897L14.4124 10.3825" stroke="#475467" stroke-width="1.20405" stroke-linecap="round" stroke-linejoin="round"/>
<path d="M14.007 14.7891H14.0142" stroke="#475467" stroke-width="1.60541" stroke-linecap="round" stroke-linejoin="round"/>
<path d="M10.0014 10.7831H10.0086" stroke="#475467" stroke-width="1.60541" stroke-linecap="round" stroke-linejoin="round"/>
</svg>
