<svg width="32" height="30" viewBox="0 0 32 30" fill="none" xmlns="http://www.w3.org/2000/svg">
<path d="M3.08398 11.2114V29.0591" stroke="white" stroke-width="1.75" stroke-linecap="round" stroke-linejoin="round"/>
<path d="M26.5977 19.1425H29.5411C30.0813 19.1425 30.5196 18.7002 30.521 18.1536C30.5315 13.0888 30.5576 6.97169 28.4842 1.90691C28.3054 1.46973 27.8463 1.22128 27.3877 1.31358C26.9291 1.40588 26.5988 1.81319 26.599 2.28634V29.0579" stroke="white" stroke-width="1.75" stroke-linecap="round" stroke-linejoin="round"/>
<path d="M1.125 1.29443V9.22674C1.125 10.322 2.00239 11.2098 3.08471 11.2098V11.2098C4.16703 11.2098 5.04443 10.322 5.04443 9.22674V1.29443" stroke="white" stroke-width="1.75" stroke-linecap="round" stroke-linejoin="round"/>
<path d="M21.7003 10.2638C18.3522 6.62706 12.7974 6.22325 8.96997 9.33834" stroke="white" stroke-width="1.75" stroke-linecap="round" stroke-linejoin="round"/>
<path d="M7.98511 24.0576C9.75887 25.9827 12.2431 27.0758 14.8441 27.0758C17.4451 27.0758 19.9293 25.9827 21.7031 24.0576" stroke="white" stroke-width="1.75" stroke-linecap="round" stroke-linejoin="round"/>
</svg>
