<svg width="16" height="17" viewBox="0 0 16 17" fill="none" xmlns="http://www.w3.org/2000/svg">
<g clip-path="url(#clip0_6819_153)">
<path d="M6.05992 6.79435C6.21665 6.3488 6.52602 5.97309 6.93322 5.73377C7.34042 5.49446 7.81918 5.40698 8.2847 5.48683C8.75022 5.56668 9.17246 5.8087 9.47664 6.17004C9.78081 6.53137 9.94729 6.9887 9.94659 7.46102C9.94659 8.79435 7.94659 9.46102 7.94659 9.46102M7.99992 12.1277H8.00659M14.6666 8.79435C14.6666 12.4763 11.6818 15.461 7.99992 15.461C4.31802 15.461 1.33325 12.4763 1.33325 8.79435C1.33325 5.11245 4.31802 2.12769 7.99992 2.12769C11.6818 2.12769 14.6666 5.11245 14.6666 8.79435Z" stroke="#98A2B3" stroke-width="1.33333" stroke-linecap="round" stroke-linejoin="round"/>
</g>
<defs>
<clipPath id="clip0_6819_153">
<rect width="16" height="16" fill="white" transform="translate(0 0.794434)"/>
</clipPath>
</defs>
</svg>
