<svg width="20" height="21" viewBox="0 0 20 21" fill="none" xmlns="http://www.w3.org/2000/svg">
<g id="instagram">
<rect id="bg" x="1.25" y="2.04443" width="17.5" height="17.5" rx="6" fill="url(#paint0_radial_6864_1139)"/>
<rect id="bg_2" x="1.25" y="2.04443" width="17.5" height="17.5" rx="6" fill="url(#paint1_radial_6864_1139)"/>
<rect id="bg_3" x="1.25" y="2.04443" width="17.5" height="17.5" rx="6" fill="url(#paint2_radial_6864_1139)"/>
<g id="instagram_2">
<path d="M14.375 7.35693C14.375 7.8747 13.9553 8.29443 13.4375 8.29443C12.9197 8.29443 12.5 7.8747 12.5 7.35693C12.5 6.83917 12.9197 6.41943 13.4375 6.41943C13.9553 6.41943 14.375 6.83917 14.375 7.35693Z" fill="white"/>
<path fill-rule="evenodd" clip-rule="evenodd" d="M10 13.9194C11.7259 13.9194 13.125 12.5203 13.125 10.7944C13.125 9.06854 11.7259 7.66943 10 7.66943C8.27411 7.66943 6.875 9.06854 6.875 10.7944C6.875 12.5203 8.27411 13.9194 10 13.9194ZM10 12.6694C11.0355 12.6694 11.875 11.83 11.875 10.7944C11.875 9.7589 11.0355 8.91943 10 8.91943C8.96447 8.91943 8.125 9.7589 8.125 10.7944C8.125 11.83 8.96447 12.6694 10 12.6694Z" fill="white"/>
<path fill-rule="evenodd" clip-rule="evenodd" d="M3.75 10.5444C3.75 8.44424 3.75 7.39414 4.15873 6.59197C4.51825 5.88636 5.09193 5.31268 5.79754 4.95316C6.5997 4.54443 7.6498 4.54443 9.75 4.54443H10.25C12.3502 4.54443 13.4003 4.54443 14.2025 4.95316C14.9081 5.31268 15.4817 5.88636 15.8413 6.59197C16.25 7.39414 16.25 8.44424 16.25 10.5444V11.0444C16.25 13.1446 16.25 14.1947 15.8413 14.9969C15.4817 15.7025 14.9081 16.2762 14.2025 16.6357C13.4003 17.0444 12.3502 17.0444 10.25 17.0444H9.75C7.6498 17.0444 6.5997 17.0444 5.79754 16.6357C5.09193 16.2762 4.51825 15.7025 4.15873 14.9969C3.75 14.1947 3.75 13.1446 3.75 11.0444V10.5444ZM9.75 5.79443H10.25C11.3207 5.79443 12.0486 5.79541 12.6112 5.84137C13.1592 5.88615 13.4395 5.96731 13.635 6.06692C14.1054 6.3066 14.4878 6.68905 14.7275 7.15946C14.8271 7.35496 14.9083 7.63521 14.9531 8.18323C14.999 8.74584 15 9.47371 15 10.5444V11.0444C15 12.1152 14.999 12.843 14.9531 13.4056C14.9083 13.9537 14.8271 14.2339 14.7275 14.4294C14.4878 14.8998 14.1054 15.2823 13.635 15.5219C13.4395 15.6216 13.1592 15.7027 12.6112 15.7475C12.0486 15.7935 11.3207 15.7944 10.25 15.7944H9.75C8.67928 15.7944 7.95141 15.7935 7.3888 15.7475C6.84078 15.7027 6.56052 15.6216 6.36502 15.5219C5.89462 15.2823 5.51217 14.8998 5.27248 14.4294C5.17287 14.2339 5.09171 13.9537 5.04694 13.4056C5.00097 12.843 5 12.1152 5 11.0444V10.5444C5 9.47371 5.00097 8.74584 5.04694 8.18323C5.09171 7.63521 5.17287 7.35496 5.27248 7.15946C5.51217 6.68905 5.89462 6.3066 6.36502 6.06692C6.56052 5.96731 6.84078 5.88615 7.3888 5.84137C7.95141 5.79541 8.67928 5.79443 9.75 5.79443Z" fill="white"/>
</g>
</g>
<defs>
<radialGradient id="paint0_radial_6864_1139" cx="0" cy="0" r="1" gradientUnits="userSpaceOnUse" gradientTransform="translate(7.5 15.1694) rotate(-55.3758) scale(15.9498)">
<stop stop-color="#B13589"/>
<stop offset="0.79309" stop-color="#C62F94"/>
<stop offset="1" stop-color="#8A3AC8"/>
</radialGradient>
<radialGradient id="paint1_radial_6864_1139" cx="0" cy="0" r="1" gradientUnits="userSpaceOnUse" gradientTransform="translate(6.875 20.1694) rotate(-65.1363) scale(14.1214)">
<stop stop-color="#E0E8B7"/>
<stop offset="0.444662" stop-color="#FB8A2E"/>
<stop offset="0.71474" stop-color="#E2425C"/>
<stop offset="1" stop-color="#E2425C" stop-opacity="0"/>
</radialGradient>
<radialGradient id="paint2_radial_6864_1139" cx="0" cy="0" r="1" gradientUnits="userSpaceOnUse" gradientTransform="translate(0.312501 2.66943) rotate(-8.1301) scale(24.3068 5.19897)">
<stop offset="0.156701" stop-color="#406ADC"/>
<stop offset="0.467799" stop-color="#6A45BE"/>
<stop offset="1" stop-color="#6A45BE" stop-opacity="0"/>
</radialGradient>
</defs>
</svg>
