<svg width="10" height="10" viewBox="0 0 10 10" fill="none" xmlns="http://www.w3.org/2000/svg">
<path d="M2.8866 1.85203C2.8866 2.43612 2.38032 2.90962 1.7558 2.90962C1.13128 2.90962 0.625 2.43612 0.625 1.85203C0.625 1.26793 1.13128 0.794434 1.7558 0.794434C2.38032 0.794434 2.8866 1.26793 2.8866 1.85203Z" fill="white"/>
<path d="M0.779639 3.687H2.71263V9.54443H0.779639V3.687Z" fill="white"/>
<path d="M5.82474 3.687H3.89175V9.54443H5.82474C5.82474 9.54443 5.82474 7.70043 5.82474 6.54747C5.82474 5.85544 6.06104 5.16039 7.00387 5.16039C8.06939 5.16039 8.06297 6.06602 8.058 6.76762C8.05151 7.68471 8.06701 8.62059 8.06701 9.54443H10V6.45301C9.98363 4.47904 9.46926 3.56949 7.77706 3.56949C6.77212 3.56949 6.14919 4.02572 5.82474 4.43849V3.687Z" fill="white"/>
</svg>
