<svg width="20" height="21" viewBox="0 0 20 21" fill="none" xmlns="http://www.w3.org/2000/svg">
<g id="linkedin">
<rect id="bg" x="1.25" y="2.04443" width="17.5" height="17.5" rx="8.75" fill="#1275B1"/>
<g id="linked_in">
<path d="M7.8866 6.85203C7.8866 7.43612 7.38032 7.90962 6.7558 7.90962C6.13128 7.90962 5.625 7.43612 5.625 6.85203C5.625 6.26793 6.13128 5.79443 6.7558 5.79443C7.38032 5.79443 7.8866 6.26793 7.8866 6.85203Z" fill="white"/>
<path d="M5.77964 8.687H7.71263V14.5444H5.77964V8.687Z" fill="white"/>
<path d="M10.8247 8.687H8.89175V14.5444H10.8247C10.8247 14.5444 10.8247 12.7004 10.8247 11.5475C10.8247 10.8554 11.061 10.1604 12.0039 10.1604C13.0694 10.1604 13.063 11.066 13.058 11.7676C13.0515 12.6847 13.067 13.6206 13.067 14.5444H15V11.453C14.9836 9.47904 14.4693 8.56949 12.7771 8.56949C11.7721 8.56949 11.1492 9.02572 10.8247 9.43849V8.687Z" fill="white"/>
</g>
</g>
</svg>
