<svg width="142" height="33" viewBox="0 0 142 33" fill="none" xmlns="http://www.w3.org/2000/svg">
<path d="M30.762 3.90137C33.5646 7.771 35.145 12.1529 35.145 16.7947C35.145 21.4365 33.5645 25.8184 30.762 29.6881C37.2497 27.2035 41.6533 22.3613 41.6533 16.7947C41.6533 11.2282 37.2498 6.38595 30.762 3.90137Z" fill="#8DC63F"/>
<path d="M21.397 3.5935C20.455 2.65373 18.8502 2.14761 17.2408 2.3443C7.4473 3.54118 0 9.55531 0 16.7944C0 24.0334 7.44725 30.0476 17.2407 31.2445C18.8501 31.4411 20.4549 30.935 21.3969 29.9953C25.1376 26.2635 27.335 21.7096 27.335 16.7943C27.335 11.8791 25.1376 7.32529 21.397 3.5935Z" fill="#C6F867"/>
<path d="M50.8501 22.0601V20.9194C50.8501 20.258 51.0424 19.6851 51.427 19.2007C51.819 18.7163 52.3182 18.3361 52.9246 18.0601C53.5311 17.784 54.2041 17.547 54.9437 17.3491C55.6833 17.1512 56.4229 16.9924 57.1624 16.8726C57.9094 16.7476 58.5861 16.6226 59.1926 16.4976C60.5682 16.2059 61.256 15.7918 61.256 15.2554C61.256 14.672 61.0416 14.2736 60.6126 14.0601C60.1836 13.8465 59.4588 13.7397 58.4382 13.7397H57.6506C56.2232 13.7397 55.2839 14.0601 54.8328 14.7007C54.4999 15.1903 54.0007 15.4351 53.3351 15.4351H52.0149C51.6525 15.4351 51.3715 15.3439 51.1718 15.1616C50.9721 14.9793 50.8723 14.7814 50.8723 14.5679C50.8723 13.9741 51.194 13.4403 51.8374 12.9663C52.4883 12.4871 53.2944 12.1278 54.2559 11.8882C55.2173 11.6486 56.2195 11.5288 57.2623 11.5288H58.7599C62.0067 11.5288 64.0628 12.1642 64.9281 13.4351C65.2683 13.9351 65.4384 14.5158 65.4384 15.1772C65.4384 15.8387 65.2461 16.4012 64.8615 16.8647C64.4769 17.3283 63.9814 17.6981 63.3749 17.9741C62.7685 18.245 62.0918 18.4793 61.3448 18.6772C60.6052 18.8752 59.8656 19.0392 59.126 19.1694C58.3865 19.2944 57.7134 19.4142 57.107 19.5288C55.724 19.7996 55.0324 20.1512 55.0324 20.5835H64.2403C64.5435 20.5835 64.7949 20.6564 64.9946 20.8022C65.2017 20.9481 65.3053 21.1226 65.3053 21.3257V22.0601C65.3053 22.2632 65.198 22.4377 64.9835 22.5835C64.7765 22.7241 64.5287 22.7944 64.2403 22.7944H51.9262C51.6378 22.7944 51.3863 22.7241 51.1718 22.5835C50.9573 22.4377 50.8501 22.2632 50.8501 22.0601Z" fill="black"/>
<path d="M66.4035 22.0757L69.1881 14.6382C69.9424 12.6121 72.3979 11.5965 76.5543 11.5913H82.5338C82.8075 11.5913 83.0331 11.6642 83.2106 11.8101C83.3955 11.9559 83.4879 12.1252 83.4879 12.3179V22.0757C83.4879 22.2788 83.3844 22.4507 83.1773 22.5913C82.9702 22.7267 82.7224 22.7944 82.434 22.7944H80.3484C80.0451 22.7944 79.7937 22.7267 79.594 22.5913C79.4017 22.4507 79.3056 22.2736 79.3056 22.0601V20.0913H71.4179L70.6746 22.0601C70.6007 22.2736 70.4343 22.4507 70.1754 22.5913C69.9166 22.7267 69.6429 22.7944 69.3545 22.7944H67.169C66.8806 22.7944 66.6735 22.7371 66.5478 22.6226C66.422 22.5028 66.3592 22.3986 66.3592 22.3101C66.3666 22.2215 66.3813 22.1434 66.4035 22.0757ZM72.2388 17.8804H79.3056V13.8022H76.1438C75.4338 13.8022 74.8126 13.9455 74.2801 14.2319C73.755 14.5132 73.4 14.8934 73.2151 15.3726L72.2388 17.8804Z" fill="black"/>
<path d="M86.6607 22.0757V12.3491C86.6607 12.1356 86.7643 11.9559 86.9713 11.8101C87.1784 11.6642 87.4262 11.5913 87.7146 11.5913H89.8003C90.0887 11.5913 90.3328 11.6642 90.5324 11.8101C90.7395 11.9559 90.8431 12.1356 90.8431 12.3491V20.5835H100.506C100.794 20.5835 101.038 20.6564 101.238 20.8022C101.445 20.9481 101.549 21.1226 101.549 21.3257V22.0601C101.549 22.2632 101.445 22.4377 101.238 22.5835C101.038 22.7241 100.794 22.7944 100.506 22.7944H87.7146C87.4262 22.7944 87.1784 22.7267 86.9713 22.5913C86.7643 22.4507 86.6607 22.2788 86.6607 22.0757Z" fill="black"/>
<path d="M103.368 22.0757V12.3491C103.368 12.1356 103.471 11.9559 103.679 11.8101C103.886 11.6642 104.133 11.5913 104.422 11.5913H106.507C106.796 11.5913 107.04 11.6642 107.24 11.8101C107.447 11.9559 107.55 12.1356 107.55 12.3491V20.5835H117.213C117.501 20.5835 117.745 20.6564 117.945 20.8022C118.152 20.9481 118.256 21.1226 118.256 21.3257V22.0601C118.256 22.2632 118.152 22.4377 117.945 22.5835C117.745 22.7241 117.501 22.7944 117.213 22.7944H104.422C104.133 22.7944 103.886 22.7267 103.679 22.5913C103.471 22.4507 103.368 22.2788 103.368 22.0757Z" fill="black"/>
</svg>
