<svg width="24" height="25" viewBox="0 0 24 25" fill="none" xmlns="http://www.w3.org/2000/svg">
<path d="M18.3406 15.2342C18.0555 17.7331 15.9879 20.2321 12.3558 20.2321C6.19468 20.2321 4.93534 14.2823 8.91504 11.2358C12.1086 8.79094 12.4085 8.46919 12.1944 5.44335C12.1895 5.37375 12.2839 5.33503 12.3372 5.38593C14.361 7.31776 14.8629 9.30697 13.8432 13.6032C13.8296 13.6603 13.8902 13.7102 13.9507 13.6882C15.441 13.1479 16.5944 11.3726 16.7004 9.94646C16.7056 9.87609 16.8042 9.84614 16.8495 9.90392C17.7132 11.0073 18.5405 13.4814 18.3406 15.2342Z" fill="#8DC63F"/>
<path fill-rule="evenodd" clip-rule="evenodd" d="M11.5669 5.47886C11.5275 4.92202 12.3103 4.53736 12.7967 5.00163C13.8734 6.02945 14.5749 7.10548 14.8513 8.51056C15.0714 9.62951 15.0159 10.928 14.7124 12.5366C14.9288 12.3377 15.1316 12.1058 15.3133 11.849C15.7548 11.2249 16.0281 10.5138 16.073 9.90921C16.094 9.62711 16.3093 9.41748 16.5645 9.34279C16.8287 9.26546 17.1661 9.32741 17.3651 9.58158C17.8548 10.2071 18.3019 11.1705 18.6021 12.1812C18.9033 13.195 19.0769 14.3239 18.9666 15.2912C18.6572 18.0029 16.3881 20.7944 12.356 20.7944C9.00956 20.7944 6.89531 19.1528 6.22731 17.0286C5.57111 14.9418 6.33713 12.4692 8.50614 10.8087C10.1397 9.55817 10.8972 8.94303 11.2755 8.29677C11.6309 7.68958 11.6749 7.00544 11.5669 5.47886L12.1946 5.44337L11.5669 5.47886ZM12.8738 6.9238C12.8509 7.65122 12.7241 8.24777 12.3902 8.81815C11.8737 9.70043 10.8845 10.4686 9.32448 11.6628L9.32447 11.6628C7.51378 13.049 6.91962 15.0745 7.43843 16.7243C7.94544 18.3366 9.54141 19.6699 12.356 19.6699C15.5883 19.6699 17.4542 17.4634 17.715 15.1771C17.8046 14.3917 17.6646 13.4072 17.3862 12.4699C17.2687 12.0745 17.1302 11.6994 16.9813 11.362C16.8233 11.7397 16.6181 12.1086 16.3766 12.4501C15.8447 13.2019 15.093 13.881 14.1874 14.2093C13.604 14.4208 13.1226 13.9311 13.2281 13.4865C13.7319 11.364 13.8425 9.87586 13.6123 8.70532C13.4818 8.04193 13.2388 7.46627 12.8738 6.9238Z" fill="#8DC63F"/>
</svg>
