<svg width="19" height="19" viewBox="0 0 19 19" fill="none" xmlns="http://www.w3.org/2000/svg">
<path d="M14.117 11.7265C13.903 13.6022 12.3512 15.4778 9.62501 15.4778C5.00075 15.4778 4.05554 11.0121 7.04254 8.72549C9.43948 6.8905 9.66458 6.64901 9.50388 4.37794C9.50018 4.3257 9.57109 4.29664 9.61112 4.33484C11.13 5.78479 11.5068 7.27782 10.7414 10.5024C10.7312 10.5453 10.7767 10.5827 10.8221 10.5662C11.9407 10.1607 12.8064 8.8282 12.8859 7.75779C12.8898 7.70498 12.9638 7.6825 12.9978 7.72586C13.6461 8.554 14.267 10.411 14.117 11.7265Z" fill="#8DC63F"/>
<path fill-rule="evenodd" clip-rule="evenodd" d="M9.03301 4.40433C9.00343 3.98638 9.591 3.69767 9.95604 4.04614C10.7642 4.81758 11.2907 5.62521 11.4982 6.6798C11.6634 7.51964 11.6217 8.49422 11.394 9.70161C11.5563 9.55232 11.7086 9.37827 11.8449 9.18552C12.1763 8.71711 12.3814 8.18338 12.4151 7.72957C12.4309 7.51784 12.5925 7.3605 12.784 7.30444C12.9823 7.2464 13.2356 7.2929 13.3849 7.48366C13.7525 7.95319 14.088 8.67627 14.3134 9.43487C14.5394 10.1957 14.6698 11.0431 14.5869 11.7691C14.3548 13.8044 12.6516 15.8996 9.62531 15.8996C7.11359 15.8996 5.52672 14.6675 5.02535 13.0731C4.53283 11.5069 5.10777 9.65096 6.73575 8.40471C7.96181 7.46609 8.53037 7.00439 8.81432 6.51934C9.0811 6.06361 9.11408 5.55012 9.03301 4.40433L9.50419 4.37769L9.03301 4.40433ZM10.014 5.48884C9.99672 6.03482 9.90155 6.48256 9.65094 6.91067C9.26329 7.57287 8.52084 8.14941 7.34996 9.04578L7.34995 9.04578C5.99092 10.0862 5.54497 11.6064 5.93436 12.8447C6.31491 14.0548 7.51278 15.0555 9.62531 15.0555C12.0513 15.0555 13.4518 13.3995 13.6476 11.6835C13.7148 11.094 13.6098 10.355 13.4008 9.65149C13.3126 9.35473 13.2086 9.07322 13.0969 8.81995C12.9783 9.10344 12.8243 9.38035 12.643 9.63664C12.2438 10.2009 11.6796 10.7106 10.9999 10.9571C10.562 11.1158 10.2007 10.7482 10.2799 10.4146C10.658 8.82149 10.741 7.70454 10.5682 6.82598C10.4702 6.32806 10.2879 5.896 10.014 5.48884Z" fill="#8DC63F"/>
</svg>
