<svg width="19" height="19" viewBox="0 0 19 19" fill="none" xmlns="http://www.w3.org/2000/svg">
<path d="M14.1167 10.9853C13.9027 12.861 12.3509 14.7366 9.62476 14.7366C5.0005 14.7366 4.05529 10.2709 7.0423 7.98428C9.43924 6.14929 9.66433 5.9078 9.50364 3.63673C9.49994 3.58449 9.57085 3.55542 9.61087 3.59363C11.1298 5.04358 11.5066 6.53661 10.7411 9.7612C10.731 9.80405 10.7765 9.84148 10.8219 9.82501C11.9404 9.41946 12.8061 8.08699 12.8857 7.01658C12.8896 6.96377 12.9636 6.94129 12.9976 6.98465C13.6458 7.81279 14.2668 9.6698 14.1167 10.9853Z" fill="#8DC63F"/>
<path fill-rule="evenodd" clip-rule="evenodd" d="M9.03276 3.66312C9.00319 3.24517 9.59076 2.95646 9.9558 3.30493C10.7639 4.07637 11.2905 4.884 11.4979 5.93859C11.6631 6.77843 11.6214 7.75301 11.3937 8.9604C11.5561 8.81111 11.7083 8.63706 11.8447 8.44431C12.176 7.9759 12.3812 7.44217 12.4149 6.98836C12.4306 6.77663 12.5922 6.61929 12.7838 6.56323C12.9821 6.50519 13.2353 6.55169 13.3847 6.74245C13.7522 7.21197 14.0878 7.93506 14.3131 8.69366C14.5392 9.45453 14.6695 10.3019 14.5867 11.0279C14.3545 13.0632 12.6514 15.1584 9.62507 15.1584C7.11335 15.1584 5.52648 13.9263 5.02511 12.3319C4.53258 10.7657 5.10753 8.90975 6.7355 7.6635C7.96156 6.72488 8.53012 6.26318 8.81407 5.77813C9.08086 5.3224 9.11383 4.8089 9.03276 3.66312L9.50394 3.63648L9.03276 3.66312ZM10.0137 4.74763C9.99648 5.29361 9.90131 5.74135 9.6507 6.16945C9.26304 6.83166 8.52059 7.40819 7.34971 8.30457L7.34971 8.30457C5.99068 9.34494 5.54473 10.8652 5.93412 12.1035C6.31466 13.3136 7.51253 14.3143 9.62507 14.3143C12.0511 14.3143 13.4516 12.6583 13.6473 10.9423C13.7146 10.3527 13.6095 9.61383 13.4005 8.91028C13.3124 8.61351 13.2084 8.33201 13.0966 8.07874C12.9781 8.36223 12.824 8.63914 12.6427 8.89543C12.2435 9.45974 11.6793 9.9694 10.9997 10.2158C10.5618 10.3746 10.2004 10.007 10.2796 9.67336C10.6578 8.08028 10.7408 6.96333 10.568 6.08477C10.47 5.58685 10.2877 5.15479 10.0137 4.74763Z" fill="#8DC63F"/>
</svg>
