<svg width="56" height="57" viewBox="0 0 56 57" fill="none" xmlns="http://www.w3.org/2000/svg">
<rect x="0.4375" y="0.731934" width="55.125" height="55.125" rx="10.0625" fill="white" fill-opacity="0.3"/>
<path d="M26.2851 42.0536C25.1149 28.5967 20.4342 21.5756 15.1685 15.1397C20.4342 18.0652 25.1149 25.6712 27.4552 35.0326C27.0593 32.2607 30.1475 26.4917 32.721 22.1607C33.95 20.0924 35.0613 19.8203 35.6464 17.48C33.8912 19.8203 32.721 20.9905 30.9601 22.1607C30.3751 18.6502 35.6408 11.6292 41.4917 14.5546C40.9066 24.501 37.4017 22.1607 33.8912 24.5011C31.0828 26.3733 29.6006 36.9829 29.2105 42.0536H26.2851Z" fill="white"/>
<rect x="0.4375" y="0.731934" width="55.125" height="55.125" rx="10.0625" stroke="white" stroke-width="0.875"/>
</svg>
