<svg width="42" height="32" viewBox="0 0 42 32" fill="none" xmlns="http://www.w3.org/2000/svg">
<path fill-rule="evenodd" clip-rule="evenodd" d="M26.255 31.5065C24.0467 27.2372 22.9426 22.5999 22.9426 17.5946C22.9426 12.5156 24.286 8.31997 26.9727 5.0076C29.6593 1.69525 33.8366 0.0390625 39.5044 0.0390625V6.99502C37.517 6.99502 36.0632 7.43667 35.1431 8.31997C34.223 9.20327 33.763 10.8962 33.763 13.3989V14.503H41.823V31.5065H26.255ZM3.40048 31.5067C1.19225 27.2375 0.0881348 22.6002 0.0881348 17.5948C0.0881348 12.5158 1.43148 8.32019 4.11816 5.00783C6.80485 1.69547 10.9821 0.0392859 16.6499 0.0392859V6.99525C14.6625 6.99525 13.2087 7.4369 12.2886 8.32019C11.3685 9.20349 10.9085 10.8965 10.9085 13.3991V14.5033H18.9685V31.5067H3.40048Z" fill="#8DC63F"/>
</svg>
