<svg width="24" height="25" viewBox="0 0 24 25" fill="none" xmlns="http://www.w3.org/2000/svg">
<g clip-path="url(#clip0_6819_9042)">
<path fill-rule="evenodd" clip-rule="evenodd" d="M12 0.794434C5.3724 0.794434 0 6.17523 0 12.8148C0 18.1248 3.438 22.6308 8.2068 24.2196C8.8068 24.33 9.0252 23.9592 9.0252 23.64C9.0252 23.3556 9.0156 22.5984 9.0096 21.5964C5.6712 22.3224 4.9668 19.9848 4.9668 19.9848C4.422 18.5952 3.6348 18.2256 3.6348 18.2256C2.5452 17.4816 3.7176 17.496 3.7176 17.496C4.9212 17.58 5.5548 18.7344 5.5548 18.7344C6.6252 20.5704 8.364 20.04 9.0468 19.7328C9.1572 18.9564 9.4668 18.4272 9.81 18.1272C7.146 17.8236 4.344 16.7916 4.344 12.186C4.344 10.8744 4.812 9.80043 5.5788 8.96043C5.4552 8.65683 5.0436 7.43403 5.6964 5.78043C5.6964 5.78043 6.7044 5.45643 8.9964 7.01163C9.97532 6.74465 10.9853 6.60866 12 6.60723C13.02 6.61203 14.046 6.74523 15.0048 7.01163C17.2956 5.45643 18.3012 5.77923 18.3012 5.77923C18.9564 7.43403 18.5436 8.65683 18.4212 8.96043C19.1892 9.80043 19.6548 10.8744 19.6548 12.186C19.6548 16.8036 16.848 17.82 14.1756 18.1176C14.6064 18.4884 14.9892 19.2216 14.9892 20.3436C14.9892 21.9492 14.9748 23.2464 14.9748 23.64C14.9748 23.9616 15.1908 24.336 15.8004 24.2184C18.19 23.417 20.2672 21.8848 21.7386 19.8385C23.2099 17.7922 24.001 15.3352 24 12.8148C24 6.17523 18.6264 0.794434 12 0.794434Z" fill="#98A2B3"/>
</g>
<defs>
<clipPath id="clip0_6819_9042">
<rect width="24" height="24" fill="white" transform="translate(0 0.794434)"/>
</clipPath>
</defs>
</svg>
