<svg width="24" height="25" viewBox="0 0 24 25" fill="none" xmlns="http://www.w3.org/2000/svg">
<g clip-path="url(#clip0_6819_9040)">
<path d="M24 12.7944C24 6.16701 18.6274 0.794434 12 0.794434C5.37258 0.794434 0 6.16701 0 12.7944C0 18.7839 4.3882 23.7484 10.125 24.6487V16.2632H7.07812V12.7944H10.125V10.1507C10.125 7.14318 11.9166 5.48193 14.6576 5.48193C15.9701 5.48193 17.3438 5.71631 17.3438 5.71631V8.66943H15.8306C14.34 8.66943 13.875 9.59451 13.875 10.5444V12.7944H17.2031L16.6711 16.2632H13.875V24.6487C19.6118 23.7484 24 18.7839 24 12.7944Z" fill="#98A2B3"/>
</g>
<defs>
<clipPath id="clip0_6819_9040">
<rect width="24" height="24" fill="white" transform="translate(0 0.794434)"/>
</clipPath>
</defs>
</svg>
