<svg width="24" height="25" viewBox="0 0 24 25" fill="none" xmlns="http://www.w3.org/2000/svg">
<g clip-path="url(#clip0_6819_9044)">
<path d="M17.7703 10.8913C18.3187 9.36318 19.8984 4.94287 19.8984 3.52725C19.8984 2.28037 19.1625 1.23506 17.85 1.23506C15.7593 1.23506 13.8843 7.4085 13.2984 8.88037C12.8437 7.54443 10.7156 0.794434 8.84058 0.794434C7.38277 0.794434 6.69839 1.86787 6.69839 3.21787C6.69839 4.87256 8.30152 9.16162 8.88277 10.8116C8.58746 10.7038 8.26871 10.6101 7.94527 10.6101C6.84839 10.6101 5.68121 11.9741 5.68121 13.0757C5.68121 13.4929 5.91089 14.0788 6.05621 14.4679C4.32652 14.9366 3.66089 16.0897 3.66089 17.8288C3.65621 21.2132 6.86246 24.7944 11.3718 24.7944C16.9031 24.7944 20.3437 20.6413 20.3437 15.2835C20.3437 13.2632 20.0203 11.4397 17.7703 10.8913V10.8913ZM16.1109 5.85693C16.2984 5.28037 17.1 2.84287 17.85 2.84287C18.2531 2.84287 18.3609 3.26006 18.3609 3.59287C18.3609 4.48818 16.5515 9.4335 16.1531 10.5304L14.5593 10.2491L16.1109 5.85693V5.85693ZM8.17027 3.0585C8.17027 2.50068 8.84996 0.916309 10.3406 5.26631L11.9625 9.96787C11.2312 9.90693 10.664 9.82725 10.3031 10.0335C9.79214 8.6835 8.17027 4.42256 8.17027 3.0585V3.0585ZM8.06246 12.2319C9.43589 12.2319 11.2078 16.6663 11.2078 17.2663C11.2078 17.5054 10.9781 17.8007 10.7109 17.8007C9.73121 17.8007 7.10621 14.196 7.10621 13.221C7.11089 12.8601 7.70152 12.2319 8.06246 12.2319V12.2319ZM16.7015 20.9647C15.3375 22.4647 13.5937 23.2429 11.5593 23.2429C8.77496 23.2429 6.57652 21.7147 5.51714 19.1038C4.71558 17.0694 5.69527 15.9022 6.48277 15.9022C7.01714 15.9022 9.02808 18.7288 9.02808 19.3288C9.02808 19.5585 8.66714 19.7179 8.47964 19.7179C7.72496 19.7179 7.42964 18.9913 6.08433 17.3085C4.69214 18.7007 7.04527 21.3819 8.81714 21.3819C10.0406 21.3819 10.8375 20.2476 10.5984 19.4132C10.7718 19.4132 10.9875 19.4272 11.1468 19.3851C11.1984 20.6554 11.5734 22.1694 13.1015 22.2772C13.1015 22.2351 13.1953 21.9444 13.1953 21.9304C13.1953 21.1147 12.6984 20.4022 12.6984 19.5726C12.6984 18.246 13.7156 16.9616 14.7468 16.2116C15.1218 15.9304 15.5765 15.7569 16.0171 15.5976C16.4718 15.4241 16.9546 15.2226 17.3015 14.8757C17.25 14.3507 17.0343 13.8866 16.5093 13.8866C15.2109 13.8866 10.8562 14.0741 10.8562 12.0257C10.8562 11.7116 10.8609 11.4116 11.6718 11.4116C13.1859 11.4116 17.0296 11.7866 18.1546 12.7757C19.0031 13.5304 19.2937 18.0819 16.7015 20.9647V20.9647ZM12.0796 15.0585C12.5343 15.2038 13.0031 15.246 13.4718 15.3397C13.125 15.5929 12.8156 15.9022 12.5203 16.2351C12.389 15.8366 12.2296 15.4476 12.0796 15.0585V15.0585Z" fill="#98A2B3"/>
</g>
<defs>
<clipPath id="clip0_6819_9044">
<rect width="24" height="24" fill="white" transform="translate(0 0.794434)"/>
</clipPath>
</defs>
</svg>
