<svg width="24" height="25" viewBox="0 0 24 25" fill="none" xmlns="http://www.w3.org/2000/svg">
<path fill-rule="evenodd" clip-rule="evenodd" d="M12 0.794434C5.37527 0.794434 0 6.16971 0 12.7944C0 19.4192 5.37527 24.7944 12 24.7944C18.6117 24.7944 24 19.4192 24 12.7944C24 6.16971 18.6117 0.794434 12 0.794434ZM19.9262 6.32589C21.3579 8.06992 22.217 10.2955 22.243 12.7033C21.9046 12.6383 18.5206 11.9484 15.1106 12.378C15.0325 12.2088 14.9675 12.0265 14.8894 11.8443C14.6811 11.3498 14.4469 10.8422 14.2126 10.3606C17.9869 8.82483 19.705 6.61222 19.9262 6.32589ZM12 2.5645C14.603 2.5645 16.9848 3.54064 18.7939 5.14151C18.6117 5.40181 17.0629 7.47123 13.4186 8.83781C11.7397 5.75322 9.87855 3.22827 9.5922 2.83782C10.3601 2.6556 11.1671 2.5645 12 2.5645ZM7.63995 3.52762C7.91325 3.89205 9.73538 6.43001 11.4404 9.44951C6.65076 10.725 2.42083 10.699 1.96529 10.699C2.62906 7.52328 4.77657 4.8812 7.63995 3.52762ZM1.74404 12.8075C1.74404 12.7033 1.74404 12.5992 1.74404 12.4951C2.18655 12.5081 7.15835 12.5732 12.2733 11.0374C12.5727 11.61 12.846 12.1957 13.1063 12.7814C12.9761 12.8205 12.8329 12.8595 12.7028 12.8985C7.41865 14.6035 4.60738 19.263 4.3731 19.6534C2.7462 17.8443 1.74404 15.4365 1.74404 12.8075ZM12 23.0504C9.6312 23.0504 7.44469 22.2435 5.71366 20.8899C5.89588 20.5125 7.97827 16.5038 13.757 14.4864C13.783 14.4734 13.7961 14.4734 13.8221 14.4604C15.2668 18.1957 15.8525 21.3324 16.0087 22.2304C14.7722 22.764 13.4186 23.0504 12 23.0504ZM17.7137 21.2934C17.6096 20.6686 17.0629 17.6751 15.7223 13.9918C18.9371 13.4842 21.7484 14.3172 22.0998 14.4344C21.6573 17.2847 20.0174 19.7445 17.7137 21.2934Z" fill="#98A2B3"/>
</svg>
