<svg width="24" height="25" viewBox="0 0 24 25" fill="none" xmlns="http://www.w3.org/2000/svg">
<g clip-path="url(#clip0_6819_9037)">
<path d="M22.2234 0.794434H1.77187C0.792187 0.794434 0 1.56787 0 2.52412V23.0601C0 24.0163 0.792187 24.7944 1.77187 24.7944H22.2234C23.2031 24.7944 24 24.0163 24 23.0647V2.52412C24 1.56787 23.2031 0.794434 22.2234 0.794434ZM7.12031 21.246H3.55781V9.78975H7.12031V21.246ZM5.33906 8.22881C4.19531 8.22881 3.27188 7.30537 3.27188 6.16631C3.27188 5.02725 4.19531 4.10381 5.33906 4.10381C6.47813 4.10381 7.40156 5.02725 7.40156 6.16631C7.40156 7.30068 6.47813 8.22881 5.33906 8.22881ZM20.4516 21.246H16.8937V15.6772C16.8937 14.3507 16.8703 12.6397 15.0422 12.6397C13.1906 12.6397 12.9094 14.0882 12.9094 15.5835V21.246H9.35625V9.78975H12.7687V11.3554H12.8156C13.2891 10.4554 14.4516 9.50381 16.1813 9.50381C19.7859 9.50381 20.4516 11.8757 20.4516 14.9601V21.246V21.246Z" fill="#98A2B3"/>
</g>
<defs>
<clipPath id="clip0_6819_9037">
<rect width="24" height="24" fill="white" transform="translate(0 0.794434)"/>
</clipPath>
</defs>
</svg>
