<svg width="24" height="25" viewBox="0 0 24 25" fill="none" xmlns="http://www.w3.org/2000/svg">
<path d="M7.55016 22.5447C16.6045 22.5447 21.5583 15.0414 21.5583 8.53654C21.5583 8.3256 21.5536 8.10998 21.5442 7.89904C22.5079 7.20214 23.3395 6.33893 24 5.34998C23.1025 5.74928 22.1496 6.01006 21.1739 6.12341C22.2013 5.50759 22.9705 4.54015 23.3391 3.40044C22.3726 3.97324 21.3156 4.37729 20.2134 4.59529C19.4708 3.80624 18.489 3.28379 17.4197 3.10873C16.3504 2.93366 15.2532 3.11573 14.2977 3.62677C13.3423 4.13782 12.5818 4.94938 12.1338 5.93599C11.6859 6.9226 11.5754 8.02929 11.8195 9.08498C9.86249 8.98677 7.94794 8.47838 6.19998 7.59278C4.45203 6.70717 2.90969 5.46411 1.67297 3.94419C1.0444 5.02792 0.852057 6.31032 1.13503 7.53077C1.418 8.75121 2.15506 9.81813 3.19641 10.5147C2.41463 10.4898 1.64998 10.2794 0.965625 9.9006V9.96154C0.964925 11.0988 1.3581 12.2013 2.07831 13.0814C2.79852 13.9616 3.80132 14.5652 4.91625 14.7897C4.19206 14.9878 3.43198 15.0167 2.69484 14.874C3.00945 15.8521 3.62157 16.7076 4.44577 17.321C5.26997 17.9345 6.26512 18.2753 7.29234 18.2959C5.54842 19.6658 3.39417 20.4088 1.17656 20.4053C0.783287 20.4047 0.390399 20.3806 0 20.3331C2.25286 21.7784 4.87353 22.5461 7.55016 22.5447Z" fill="#98A2B3"/>
</svg>
