<svg width="24" height="25" viewBox="0 0 24 25" fill="none" xmlns="http://www.w3.org/2000/svg">
<path d="M11.5383 3.9044C11.7091 3.49375 12.2909 3.49375 12.4617 3.9044L14.5278 8.87188C14.5998 9.04499 14.7626 9.16328 14.9495 9.17826L20.3123 9.6082C20.7556 9.64374 20.9354 10.197 20.5976 10.4863L16.5117 13.9863C16.3693 14.1083 16.3071 14.2997 16.3506 14.4821L17.5989 19.7153C17.7021 20.1479 17.2315 20.4898 16.8519 20.258L12.2606 17.4536C12.1006 17.3559 11.8994 17.3559 11.7394 17.4536L7.14806 20.258C6.76851 20.4898 6.29788 20.1479 6.40108 19.7153L7.64939 14.4821C7.69289 14.2997 7.6307 14.1083 7.48831 13.9863L3.40241 10.4863C3.06464 10.197 3.24441 9.64374 3.68773 9.6082L9.05054 9.17826C9.23744 9.16328 9.40024 9.04499 9.47225 8.87188L11.5383 3.9044Z" fill="#FAC515"/>
</svg>
