<svg width="16" height="16" viewBox="0 0 16 16" fill="none" xmlns="http://www.w3.org/2000/svg">
<g clip-path="url(#clip0_5693_38225)">
<path d="M7.46965 1.35067C7.59784 1.04246 8.03446 1.04246 8.16265 1.35067L9.71338 5.07906C9.76742 5.209 9.88962 5.29778 10.0299 5.30903L14.055 5.63172C14.3877 5.65839 14.5227 6.07364 14.2692 6.29081L11.2024 8.91777C11.0956 9.00932 11.0489 9.15297 11.0815 9.28986L12.0185 13.2177C12.0959 13.5424 11.7427 13.799 11.4578 13.625L8.01177 11.5202C7.89167 11.4468 7.74063 11.4468 7.62053 11.5202L4.17448 13.625C3.8896 13.799 3.53637 13.5424 3.61382 13.2177L4.55075 9.28986C4.5834 9.15297 4.53673 9.00932 4.42985 8.91777L1.36314 6.29081C1.10963 6.07364 1.24455 5.65839 1.57729 5.63172L5.60241 5.30903C5.74268 5.29778 5.86488 5.209 5.91892 5.07907L7.46965 1.35067Z" fill="#F2F4F7"/>
<g clip-path="url(#clip1_5693_38225)">
<path d="M7.46965 1.35067C7.59784 1.04246 8.03446 1.04246 8.16265 1.35067L9.71338 5.07906C9.76742 5.209 9.88962 5.29778 10.0299 5.30903L14.055 5.63172C14.3877 5.65839 14.5227 6.07364 14.2692 6.29081L11.2024 8.91777C11.0956 9.00932 11.0489 9.15297 11.0815 9.28986L12.0185 13.2177C12.0959 13.5424 11.7427 13.799 11.4578 13.625L8.01177 11.5202C7.89167 11.4468 7.74063 11.4468 7.62053 11.5202L4.17448 13.625C3.8896 13.799 3.53637 13.5424 3.61382 13.2177L4.55075 9.28986C4.5834 9.15297 4.53673 9.00932 4.42985 8.91777L1.36314 6.29081C1.10963 6.07364 1.24455 5.65839 1.57729 5.63172L5.60241 5.30903C5.74268 5.29778 5.86488 5.209 5.91892 5.07907L7.46965 1.35067Z" fill="#FAC515"/>
</g>
</g>
<defs>
<clipPath id="clip0_5693_38225">
<rect width="15.0112" height="15.0112" fill="white" transform="translate(0.310547 0.14209)"/>
</clipPath>
<clipPath id="clip1_5693_38225">
<rect width="15.0112" height="15.0112" fill="white" transform="translate(0.310547 0.14209)"/>
</clipPath>
</defs>
</svg>
