<svg width="20" height="21" viewBox="0 0 20 21" fill="none" xmlns="http://www.w3.org/2000/svg">
<g clip-path="url(#clip0_6819_1827)">
<path d="M9.53834 1.92027C9.70914 1.50962 10.2909 1.50962 10.4617 1.92027L12.5278 6.88775C12.5998 7.06086 12.7626 7.17915 12.9495 7.19413L18.3123 7.62407C18.7556 7.65961 18.9354 8.21286 18.5976 8.5022L14.5117 12.0022C14.3693 12.1242 14.3071 12.3156 14.3506 12.4979L15.5989 17.7311C15.7021 18.1637 15.2315 18.5057 14.8519 18.2738L10.2606 15.4695C10.1006 15.3718 9.89938 15.3718 9.73937 15.4695L5.14806 18.2738C4.76851 18.5057 4.29788 18.1637 4.40108 17.7311L5.64939 12.4979C5.69289 12.3156 5.6307 12.1242 5.48831 12.0022L1.40241 8.5022C1.06464 8.21286 1.24441 7.65961 1.68773 7.62407L7.05054 7.19413C7.23744 7.17915 7.40024 7.06086 7.47225 6.88775L9.53834 1.92027Z" fill="#F2F4F7"/>
<g clip-path="url(#clip1_6819_1827)">
<path d="M9.53834 1.92027C9.70914 1.50962 10.2909 1.50962 10.4617 1.92027L12.5278 6.88775C12.5998 7.06086 12.7626 7.17915 12.9495 7.19413L18.3123 7.62407C18.7556 7.65961 18.9354 8.21286 18.5976 8.5022L14.5117 12.0022C14.3693 12.1242 14.3071 12.3156 14.3506 12.4979L15.5989 17.7311C15.7021 18.1637 15.2315 18.5057 14.8519 18.2738L10.2606 15.4695C10.1006 15.3718 9.89938 15.3718 9.73937 15.4695L5.14806 18.2738C4.76851 18.5057 4.29788 18.1637 4.40108 17.7311L5.64939 12.4979C5.69289 12.3156 5.6307 12.1242 5.48831 12.0022L1.40241 8.5022C1.06464 8.21286 1.24441 7.65961 1.68773 7.62407L7.05054 7.19413C7.23744 7.17915 7.40024 7.06086 7.47225 6.88775L9.53834 1.92027Z" fill="#FEC04B"/>
</g>
</g>
<defs>
<clipPath id="clip0_6819_1827">
<rect width="20" height="20" fill="white" transform="translate(0 0.310303)"/>
</clipPath>
<clipPath id="clip1_6819_1827">
<rect width="20" height="20" fill="white" transform="translate(0 0.310303)"/>
</clipPath>
</defs>
</svg>
