<svg width="16" height="16" viewBox="0 0 16 16" fill="none" xmlns="http://www.w3.org/2000/svg">
<g clip-path="url(#clip0_5693_38195)">
<path d="M7.46989 2.0914C7.59808 1.78318 8.0347 1.78318 8.1629 2.0914L9.71362 5.81979C9.76767 5.94972 9.88986 6.0385 10.0301 6.04975L14.0552 6.37244C14.388 6.39912 14.5229 6.81437 14.2694 7.03153L11.2027 9.65849C11.0958 9.75004 11.0491 9.89369 11.0818 10.0306L12.0187 13.9584C12.0962 14.2831 11.7429 14.5397 11.4581 14.3657L8.01201 12.2609C7.89191 12.1876 7.74087 12.1876 7.62078 12.2609L4.17472 14.3657C3.88984 14.5397 3.53661 14.2831 3.61406 13.9584L4.551 10.0306C4.58365 9.89369 4.53697 9.75004 4.4301 9.65849L1.36339 7.03153C1.10987 6.81437 1.24479 6.39912 1.57754 6.37244L5.60265 6.04975C5.74293 6.0385 5.86512 5.94972 5.91916 5.81979L7.46989 2.0914Z" fill="#F2F4F7"/>
<g clip-path="url(#clip1_5693_38195)">
<path d="M7.46989 2.0914C7.59808 1.78318 8.0347 1.78318 8.1629 2.0914L9.71362 5.81979C9.76767 5.94972 9.88986 6.0385 10.0301 6.04975L14.0552 6.37244C14.388 6.39912 14.5229 6.81437 14.2694 7.03153L11.2027 9.65849C11.0958 9.75004 11.0491 9.89369 11.0818 10.0306L12.0187 13.9584C12.0962 14.2831 11.7429 14.5397 11.4581 14.3657L8.01201 12.2609C7.89191 12.1876 7.74087 12.1876 7.62078 12.2609L4.17472 14.3657C3.88984 14.5397 3.53661 14.2831 3.61406 13.9584L4.551 10.0306C4.58365 9.89369 4.53697 9.75004 4.4301 9.65849L1.36339 7.03153C1.10987 6.81437 1.24479 6.39912 1.57754 6.37244L5.60265 6.04975C5.74293 6.0385 5.86512 5.94972 5.91916 5.81979L7.46989 2.0914Z" fill="#FAC515"/>
</g>
</g>
<defs>
<clipPath id="clip0_5693_38195">
<rect width="15.0112" height="15.0112" fill="white" transform="translate(0.310791 0.882812)"/>
</clipPath>
<clipPath id="clip1_5693_38195">
<rect width="15.0112" height="15.0112" fill="white" transform="translate(0.310791 0.882812)"/>
</clipPath>
</defs>
</svg>
