<svg width="20" height="21" viewBox="0 0 20 21" fill="none" xmlns="http://www.w3.org/2000/svg">
<g clip-path="url(#clip0_6819_1599)">
<path d="M9.53834 2.4044C9.70914 1.99375 10.2909 1.99375 10.4617 2.4044L12.5278 7.37188C12.5998 7.54499 12.7626 7.66328 12.9495 7.67826L18.3123 8.1082C18.7556 8.14374 18.9354 8.69699 18.5976 8.98633L14.5117 12.4863C14.3693 12.6083 14.3071 12.7997 14.3506 12.9821L15.5989 18.2153C15.7021 18.6479 15.2315 18.9898 14.8519 18.758L10.2606 15.9536C10.1006 15.8559 9.89938 15.8559 9.73937 15.9536L5.14806 18.758C4.76851 18.9898 4.29788 18.6479 4.40108 18.2153L5.64939 12.9821C5.69289 12.7997 5.6307 12.6083 5.48831 12.4863L1.40241 8.98633C1.06464 8.69699 1.24441 8.14374 1.68773 8.1082L7.05054 7.67826C7.23744 7.66328 7.40024 7.54499 7.47225 7.37188L9.53834 2.4044Z" fill="#F2F4F7"/>
<g clip-path="url(#clip1_6819_1599)">
<path d="M9.53834 2.4044C9.70914 1.99375 10.2909 1.99375 10.4617 2.4044L12.5278 7.37188C12.5998 7.54499 12.7626 7.66328 12.9495 7.67826L18.3123 8.1082C18.7556 8.14374 18.9354 8.69699 18.5976 8.98633L14.5117 12.4863C14.3693 12.6083 14.3071 12.7997 14.3506 12.9821L15.5989 18.2153C15.7021 18.6479 15.2315 18.9898 14.8519 18.758L10.2606 15.9536C10.1006 15.8559 9.89938 15.8559 9.73937 15.9536L5.14806 18.758C4.76851 18.9898 4.29788 18.6479 4.40108 18.2153L5.64939 12.9821C5.69289 12.7997 5.6307 12.6083 5.48831 12.4863L1.40241 8.98633C1.06464 8.69699 1.24441 8.14374 1.68773 8.1082L7.05054 7.67826C7.23744 7.66328 7.40024 7.54499 7.47225 7.37188L9.53834 2.4044Z" fill="#FEC84B"/>
</g>
</g>
<defs>
<clipPath id="clip0_6819_1599">
<rect width="20" height="20" fill="white" transform="translate(0 0.794434)"/>
</clipPath>
<clipPath id="clip1_6819_1599">
<rect width="20" height="20" fill="white" transform="translate(0 0.794434)"/>
</clipPath>
</defs>
</svg>
