<svg width="150" height="166" viewBox="0 0 150 166" fill="none" xmlns="http://www.w3.org/2000/svg">
<path d="M142.769 60.5092C142.769 60.5092 119.253 77.4373 140.269 120.592C158.934 158.918 107.596 169.781 86.5336 163.504C59.2494 155.373 46.683 118.677 24.3376 127.757C1.99222 136.837 -14.1929 84.3278 18.5394 68.7493C59.2575 49.3706 35.8591 33.5553 40.9544 16.9508C44.6114 5.03356 81.7313 -10.3477 98.6906 12.9356C112.962 32.5277 121.441 26.833 128.995 25.1327C139.889 22.6805 161.188 42.98 142.769 60.5092Z" fill="#E8F4D9"/>
<path d="M143.051 75.6256L142.89 76.6283C142.755 77.4636 142.295 78.2114 141.609 78.7072C140.924 79.2029 140.069 79.406 139.234 79.2718L139.16 79.2601C138.457 79.147 137.736 79.2728 137.112 79.6175C136.488 79.9621 135.998 80.5057 135.719 81.1615L113.097 134.365C112.444 135.903 111.295 137.178 109.834 137.986C108.372 138.795 106.681 139.09 105.032 138.825L41.943 128.689C40.2568 128.422 38.7135 127.584 37.5711 126.315C36.4286 125.047 35.7565 123.424 35.6669 121.72L32.534 64.6727C32.4941 63.9455 32.2065 63.2539 31.7192 62.7127C31.2318 62.1716 30.5739 61.8135 29.8548 61.698C29.4412 61.6316 29.0447 61.4843 28.688 61.2646C28.3313 61.0449 28.0214 60.7571 27.7759 60.4176C27.5304 60.0782 27.3542 59.6937 27.2574 59.2861C27.1605 58.8786 27.1448 58.4559 27.2113 58.0423L27.3724 57.0397C27.4388 56.6261 27.5861 56.2296 27.8058 55.8729C28.0255 55.5162 28.3132 55.2062 28.6527 54.9608C28.9921 54.7153 29.3766 54.5391 29.7842 54.4422C30.1918 54.3453 30.6144 54.3296 31.028 54.3961L57.753 58.6899C58.1634 58.7559 58.5842 58.7018 58.9646 58.5342C59.345 58.3666 59.6689 58.0926 59.8972 57.7452L78.5627 29.3435C78.8096 28.9657 79.1607 28.6675 79.5734 28.4847C79.9861 28.302 80.4428 28.2426 80.8886 28.3138C81.2122 28.3638 81.5212 28.4834 81.7942 28.6643C82.0519 28.8329 82.2739 29.0507 82.4475 29.3052C82.621 29.5597 82.7427 29.8459 82.8055 30.1474C82.8684 30.449 82.8712 30.7599 82.8138 31.0626C82.7564 31.3652 82.6399 31.6535 82.471 31.9111L66.0189 56.939C65.8212 57.2398 65.7019 57.5853 65.672 57.944C65.642 58.3028 65.7023 58.6633 65.8475 58.9928C65.9926 59.3222 66.2179 59.6101 66.5028 59.8301C66.7877 60.0502 67.1231 60.1954 67.4786 60.2526L103.047 65.9669C103.403 66.024 103.767 65.9912 104.107 65.8715C104.446 65.7517 104.75 65.5488 104.991 65.2813C105.233 65.0138 105.403 64.6902 105.487 64.34C105.57 63.9898 105.565 63.6242 105.471 63.2765L97.6742 34.3539C97.5168 33.7531 97.6028 33.1145 97.9136 32.5768C98.2244 32.0391 98.7349 31.6459 99.334 31.4824C99.6499 31.3961 99.9808 31.3794 100.304 31.4333C100.749 31.5053 101.165 31.7048 101.499 32.0076C101.834 32.3104 102.074 32.7036 102.19 33.1397L111.019 65.9589C111.127 66.3604 111.349 66.722 111.658 67.0004C111.966 67.2787 112.349 67.4619 112.76 67.5279L140.407 71.9699C140.82 72.0363 141.217 72.1836 141.574 72.4033C141.93 72.6229 142.24 72.9107 142.486 73.2502C142.731 73.5897 142.908 73.9742 143.004 74.3817C143.101 74.7893 143.117 75.212 143.051 75.6256Z" fill="#00473C"/>
<path d="M59.3089 67.8108L52.342 66.6913C52.2855 66.6823 52.2324 66.7207 52.2233 66.7771L43.9199 118.455C43.9109 118.511 43.9493 118.565 44.0057 118.574L50.9727 119.693C51.0292 119.702 51.0823 119.664 51.0913 119.607L59.3947 67.9294C59.4038 67.8729 59.3654 67.8198 59.3089 67.8108Z" fill="#E8F4D9"/>
<path d="M116.982 76.9124L110.015 75.793C109.959 75.7839 109.906 75.8223 109.897 75.8788L101.593 127.557C101.584 127.613 101.623 127.666 101.679 127.675L108.646 128.795C108.702 128.804 108.756 128.765 108.765 128.709L117.068 77.031C117.077 76.9746 117.039 76.9215 116.982 76.9124Z" fill="#E8F4D9"/>
<path d="M73.6561 70.1312L66.6915 69.0093C66.6351 69.0002 66.582 69.0385 66.5729 69.095L58.2507 120.755C58.2416 120.812 58.28 120.865 58.3364 120.874L65.301 121.996C65.3574 122.005 65.4106 121.966 65.4196 121.91L73.7418 70.2498C73.7509 70.1934 73.7125 70.1403 73.6561 70.1312Z" fill="#E8F4D9"/>
<path d="M88.159 72.281L81.1921 71.1616C81.1356 71.1525 81.0825 71.1909 81.0734 71.2474L72.7701 122.925C72.761 122.982 72.7994 123.035 72.8559 123.044L79.8228 124.163C79.8793 124.172 79.9324 124.134 79.9414 124.077L88.2448 72.3996C88.2538 72.3432 88.2154 72.29 88.159 72.281Z" fill="#E8F4D9"/>
<path d="M102.57 74.5967L95.6032 73.4772C95.5467 73.4682 95.4936 73.5066 95.4846 73.563L87.1812 125.241C87.1721 125.297 87.2105 125.35 87.267 125.359L94.2339 126.479C94.2904 126.488 94.3435 126.45 94.3526 126.393L102.656 74.7153C102.665 74.6588 102.627 74.6057 102.57 74.5967Z" fill="#E8F4D9"/>
</svg>
