<svg width="24" height="24" viewBox="0 0 24 24" fill="none" xmlns="http://www.w3.org/2000/svg">
<path d="M8.54996 10.3206C8.32816 9.83344 8.20901 9.30582 8.19995 8.77061C8.3052 7.86979 8.73763 7.03901 9.41513 6.43606C10.0926 5.83311 10.968 5.5 11.8749 5.5C12.7819 5.5 13.6572 5.83311 14.3347 6.43606C15.0122 7.03901 15.4447 7.86979 15.55 8.77061C15.5355 9.30515 15.4166 9.83171 15.2 10.3206" stroke="black" stroke-width="1.5" stroke-linecap="round" stroke-linejoin="round"/>
<path d="M8.00001 14.5707C7.15697 14.4181 6.39446 13.9739 5.84599 13.3157C5.29752 12.6576 4.99805 11.8274 5.00001 10.9707C5.00001 8.9707 6.35002 7.7207 8.35002 7.7207" stroke="black" stroke-width="1.5" stroke-linecap="round" stroke-linejoin="round"/>
<path d="M15.3501 7.7207C17.4001 7.7207 18.7501 8.9707 18.7501 10.9707C18.752 11.8274 18.4526 12.6576 17.9041 13.3157C17.3556 13.9739 16.5931 14.4181 15.7501 14.5707" stroke="black" stroke-width="1.5" stroke-linecap="round" stroke-linejoin="round"/>
<path d="M8 14.5708V18.3708H15.7V14.5708" stroke="black" stroke-width="1.5" stroke-linecap="round" stroke-linejoin="round"/>
<path d="M8 16.4707H15.7" stroke="black" stroke-width="1.5" stroke-linecap="round" stroke-linejoin="round"/>
<path d="M11.8501 16.4707V14.4707" stroke="black" stroke-width="1.5" stroke-linecap="round" stroke-linejoin="round"/>
</svg>
