<svg width="41" height="39" viewBox="0 0 41 39" fill="none" xmlns="http://www.w3.org/2000/svg">
<path fill-rule="evenodd" clip-rule="evenodd" d="M40.0563 32.0036C40.1923 32.4873 40.2694 32.9937 40.2694 33.5181C40.2694 36.5154 37.835 38.9431 34.8294 38.9431C32.0006 38.9431 29.675 36.7867 29.4121 34.0335C30.3868 33.6944 31.3025 33.179 32.2364 32.6998C32.1548 32.9575 32.1094 33.2333 32.1094 33.5181C32.1094 35.0145 33.3289 36.2306 34.8294 36.2306C36.3299 36.2306 37.5494 35.0145 37.5494 33.5181C37.5494 32.6727 37.1595 31.9132 36.5521 31.4159C37.6355 31.3842 38.7371 31.5741 39.9475 31.9719C39.9838 31.9855 40.02 31.9945 40.0563 32.0036Z" fill="black"/>
<path fill-rule="evenodd" clip-rule="evenodd" d="M24.2942 26.7232C24.5707 27.3832 25.083 28.093 25.7901 28.093H27.4765C30.269 28.093 30.0605 20.177 29.7704 17.0802C29.2581 16.9807 28.7323 16.8677 28.2291 16.7366C28.5011 16.5241 28.7277 16.2438 28.8819 15.9092C29.2491 15.1181 29.1085 14.2139 28.6008 13.5674C30.0786 13.2148 31.6608 13.0023 32.4088 13.0023C34 13.0023 35.2919 13.9879 35.2919 15.1995C35.2919 15.9997 34.7298 16.7004 33.8866 17.0847C34.825 20.9591 38.4834 26.8905 39.9839 28.9927C40.9994 30.4168 41.0492 31.3842 40.2332 31.1175C33.524 28.8932 31.0896 33.5181 27.2907 33.5181H22.9432H20.2233H7.07668C5.83002 33.5181 4.5471 32.4738 4.81003 31.2576L5.83909 26.4565C5.92975 26.0405 5.57616 25.3805 5.15003 25.3805H2.99671C2.24871 25.3805 1.63672 24.7702 1.63672 24.0242C1.63672 23.2783 2.24871 22.668 2.99671 22.668H18.6366C19.2894 22.668 19.2939 22.998 19.1217 23.423C18.9358 23.8796 18.7409 24.309 18.6502 24.517C18.2739 25.3579 17.8659 26.2123 17.4398 27.0261C17.1134 27.6409 16.7915 28.2558 16.4878 28.8842C15.8441 30.2314 16.4153 31.8454 17.7662 32.4918C19.1171 33.1338 20.7355 32.5642 21.3838 31.2169C21.6512 30.6564 21.955 30.1003 22.2451 29.5487C22.7392 28.6129 23.2243 27.6635 23.6595 26.6961C23.7955 26.3932 24.072 26.1897 24.2942 26.7232Z" fill="black"/>
<path fill-rule="evenodd" clip-rule="evenodd" d="M17.802 34.4222C17.3713 36.9901 15.1318 38.9431 12.4391 38.9431C9.74175 38.9431 7.50684 36.9901 7.07617 34.4222H9.87322C10.2495 35.4756 11.2559 36.2306 12.4391 36.2306C13.6223 36.2306 14.6287 35.4756 15.0049 34.4222H17.802Z" fill="black"/>
<path d="M17.6207 9.476C20.0233 6.3159 22.4804 10.353 24.1668 11.6958C25.223 12.5412 26.3971 13.2781 27.3945 13.7347C28.0745 14.0511 28.3691 14.8558 28.0563 15.534C27.7435 16.2121 26.9366 16.506 26.2566 16.194C25.087 15.656 23.718 14.7971 22.4758 13.807C21.5828 13.0927 21.4468 13.3911 21.1521 13.8432C20.3361 15.1045 19.6924 16.4517 19.2391 17.9074C20.7351 17.7989 22.2446 17.7402 23.455 18.7438C25.8985 20.7737 22.5166 27.0894 21.4423 29.1283C21.0841 29.8064 20.7532 30.4303 20.5673 30.8281C20.1367 31.7233 19.0577 32.103 18.1556 31.6735C17.258 31.2486 16.8772 30.1726 17.3079 29.2729C17.598 28.6626 17.9063 28.0794 18.2417 27.4465C18.5001 26.9582 19.8737 24.1508 20.3543 22.677C20.5764 21.9988 20.2001 21.7638 19.8647 21.7638C19.0124 21.7638 17.9788 21.7638 17.2716 21.7638C11.945 21.7638 13.2868 17.6543 14.9506 13.9245C15.6442 12.3694 16.5282 10.9091 17.6207 9.476Z" fill="black"/>
<path d="M21.35 8.13978C23.0424 8.59202 24.8347 7.39441 25.3531 5.46485C25.8716 3.53529 24.9199 1.60446 23.2275 1.15222C21.5351 0.699985 19.7428 1.89759 19.2244 3.82715C18.7059 5.75672 19.6576 7.68755 21.35 8.13978Z" fill="black"/>
<path fill-rule="evenodd" clip-rule="evenodd" d="M11.7866 10.9137H0.90666C0.407997 10.9137 0 11.3206 0 11.8179V20.8596C0 21.3569 0.407997 21.7638 0.90666 21.7638H11.7866C12.2852 21.7638 12.6932 21.3569 12.6932 20.8596V11.8179C12.6932 11.3206 12.2852 10.9137 11.7866 10.9137Z" fill="black"/>
</svg>
