<svg width="33" height="32" viewBox="0 0 33 32" fill="none" xmlns="http://www.w3.org/2000/svg">
<path d="M15.6295 0.97566C15.9452 0.21667 17.0204 0.216671 17.3361 0.975661L21.1548 10.157C21.2879 10.4769 21.5888 10.6956 21.9343 10.7233L31.8462 11.5179C32.6656 11.5836 32.9979 12.6062 32.3736 13.1409L24.8217 19.6099C24.5585 19.8354 24.4436 20.1891 24.524 20.5262L26.8312 30.1986C27.022 30.9982 26.1521 31.6302 25.4506 31.2017L16.9645 26.0185C16.6688 25.8378 16.2969 25.8378 16.0011 26.0185L7.51507 31.2017C6.81355 31.6302 5.9437 30.9982 6.13444 30.1986L8.44166 20.5262C8.52207 20.1891 8.40713 19.8354 8.14395 19.6099L0.592054 13.1409C-0.032238 12.6062 0.300016 11.5836 1.11941 11.5179L11.0314 10.7233C11.3768 10.6956 11.6777 10.4769 11.8108 10.157L15.6295 0.97566Z" fill="#D0D5DD"/>
</svg>
