<svg width="44" height="33" viewBox="0 0 44 33" fill="none" xmlns="http://www.w3.org/2000/svg">
<path fill-rule="evenodd" clip-rule="evenodd" d="M22.0361 4.81445C29.6401 4.81445 35.8062 10.9945 35.8062 18.615C35.8062 26.2361 29.6401 32.4161 22.0361 32.4161C14.4327 32.4161 8.2666 26.2361 8.2666 18.615C8.2666 10.9945 14.4327 4.81445 22.0361 4.81445ZM22.0361 8.42101C27.6532 8.42101 32.2077 12.9858 32.2077 18.615C32.2077 24.2448 27.6532 28.8096 22.0361 28.8096C16.4196 28.8096 11.8645 24.2448 11.8645 18.615C11.8645 12.9858 16.4196 8.42101 22.0361 8.42101Z" fill="black"/>
<path fill-rule="evenodd" clip-rule="evenodd" d="M3.65229 0.572402C5.66924 0.572402 7.30458 3.08549 7.30458 6.18536C7.30458 8.52259 6.37457 10.5261 5.05252 11.3706V31.6263C4.2001 32.8039 3.26662 32.8039 2.25206 31.6263V11.37C0.930007 10.5261 0 8.522 0 6.18535C0 3.08547 1.63533 0.572402 3.65229 0.572402Z" fill="black"/>
<path fill-rule="evenodd" clip-rule="evenodd" d="M44.0008 10.4993C44.0008 11.183 42.1645 11.2347 41.8188 11.4547V31.7104C40.9669 32.888 40.0335 32.888 39.0189 31.7104V11.4547C38.6738 11.2335 36.8369 11.1836 36.8369 10.4993C36.8369 7.31124 36.8369 4.13767 36.8369 0.947844C36.8369 0.576393 37.4316 0.316379 38.2777 0.163735V8.858H39.6663V0.0163157C40.1545 -0.00689993 40.6612 -0.00515876 41.1494 0.0203784V8.85799H42.5386V0.173016C43.3962 0.328561 44.0008 0.587996 44.0008 0.947839C44.0008 4.13767 44.0008 7.31126 44.0008 10.4993Z" fill="black"/>
<path fill-rule="evenodd" clip-rule="evenodd" d="M22.035 9.58411C27.011 9.58411 31.0461 13.6283 31.0461 18.615C31.0461 23.6023 27.011 27.6465 22.035 27.6465C17.0595 27.6465 13.0244 23.6023 13.0244 18.615C13.0244 13.6283 17.0595 9.58411 22.035 9.58411Z" fill="black"/>
</svg>
