<svg width="36" height="36" viewBox="0 0 36 36" fill="none" xmlns="http://www.w3.org/2000/svg">
<g clip-path="url(#clip0_8528_2317)">
<path d="M17.6295 2.97572C17.9452 2.21673 19.0204 2.21673 19.3361 2.97572L23.1548 12.157C23.2879 12.477 23.5888 12.6956 23.9343 12.7233L33.8462 13.518C34.6656 13.5836 34.9979 14.6062 34.3736 15.141L26.8217 21.61C26.5585 21.8354 26.4436 22.1892 26.524 22.5263L28.8312 32.1987C29.022 32.9983 28.1521 33.6303 27.4506 33.2018L18.9645 28.0185C18.6688 27.8379 18.2969 27.8379 18.0011 28.0185L9.51507 33.2018C8.81355 33.6303 7.9437 32.9983 8.13444 32.1987L10.4417 22.5263C10.5221 22.1892 10.4071 21.8354 10.1439 21.61L2.59205 15.141C1.96776 14.6062 2.30002 13.5836 3.11941 13.518L13.0314 12.7233C13.3768 12.6956 13.6777 12.477 13.8108 12.157L17.6295 2.97572Z" fill="#FEC04B"/>
</g>
<defs>
<clipPath id="clip0_8528_2317">
<rect width="36.9657" height="36.9657" fill="white"/>
</clipPath>
</defs>
</svg>
