<svg width="24" height="25" viewBox="0 0 24 25" fill="none" xmlns="http://www.w3.org/2000/svg">
<path d="M4.38705 13.4072C4.38705 15.4776 5.20952 17.4632 6.67351 18.9272C8.1375 20.3912 10.1231 21.2137 12.1935 21.2137C14.2639 21.2137 16.2495 20.3912 17.7135 18.9272C19.1775 17.4632 20 15.4776 20 13.4072H4.38705Z" stroke="#667085" stroke-linecap="round" stroke-linejoin="round"/>
<path d="M5.99997 10.7623C6.11429 9.92809 6.52689 9.16348 7.16144 8.60995C7.79599 8.05643 8.60954 7.75146 9.45159 7.75146C10.2936 7.75146 11.1072 8.05643 11.7417 8.60995C12.3763 9.16348 12.7889 9.92809 12.9032 10.7623" stroke="#667085" stroke-linecap="round" stroke-linejoin="round"/>
<path d="M10.6452 7.3425C11.1136 6.81267 11.6897 6.38895 12.3351 6.09967C12.9804 5.81039 13.68 5.66223 14.3872 5.66508C15.0535 5.66502 15.7132 5.7973 16.328 6.05422C16.9427 6.31114 17.5004 6.68759 17.9685 7.16173C18.4367 7.63587 18.806 8.19827 19.055 8.81627C19.3041 9.43428 19.428 10.0956 19.4194 10.7619" stroke="#667085" stroke-linecap="round" stroke-linejoin="round"/>
<path d="M12.3226 8.89124C12.826 8.46312 13.4684 8.23368 14.1291 8.24608C14.8709 8.24589 15.5833 8.53611 16.1139 9.05459C16.6444 9.57308 16.9509 10.2786 16.9678 11.0203" stroke="#667085" stroke-linecap="round" stroke-linejoin="round"/>
<path d="M8.38702 7.53637L4.45154 3.79443" stroke="#667085" stroke-linecap="round" stroke-linejoin="round"/>
<path d="M6.25806 9.47181L4 7.34277" stroke="#667085" stroke-linecap="round" stroke-linejoin="round"/>
</svg>
