<svg width="24" height="25" viewBox="0 0 24 25" fill="none" xmlns="http://www.w3.org/2000/svg">
<path d="M18.7368 8.81782L11.5789 12.7944M11.5789 12.7944L4.42103 8.81782M11.5789 12.7944L11.5789 20.7945M13.2632 20.2798L12.2333 20.852C11.9945 20.9847 11.8751 21.051 11.7486 21.077C11.6367 21.1 11.5212 21.1 11.4093 21.077C11.2828 21.051 11.1634 20.9847 10.9246 20.852L4.69303 17.39C4.44081 17.2499 4.31468 17.1798 4.22285 17.0802C4.14161 16.992 4.08012 16.8875 4.04251 16.7737C4 16.645 4 16.5007 4 16.2122V9.37672C4 9.08818 4 8.94391 4.04251 8.81524C4.08012 8.70141 4.14161 8.59692 4.22285 8.50876C4.31468 8.40911 4.4408 8.33904 4.69303 8.19891L10.9246 4.73692C11.1634 4.60425 11.2828 4.5379 11.4093 4.51189C11.5212 4.48887 11.6367 4.48887 11.7486 4.51189C11.8751 4.5379 11.9945 4.60424 12.2333 4.73692L18.4649 8.19891C18.7171 8.33904 18.8432 8.4091 18.935 8.50876C19.0163 8.59692 19.0778 8.70141 19.1154 8.81524C19.1579 8.94391 19.1579 9.08818 19.1579 9.37672L19.1579 13.2155M7.78947 6.47866L15.3684 10.6892M14.9474 17.8471L16.6316 19.5313L20 16.1629" stroke="#667085" stroke-linecap="round" stroke-linejoin="round"/>
</svg>
