<svg width="24" height="25" viewBox="0 0 24 25" fill="none" xmlns="http://www.w3.org/2000/svg">
<path d="M12.9144 5.17117L11.8789 7.98155C12.5605 7.74569 13.2741 7.59609 14.0065 7.53908L12.9144 5.17117Z" fill="#8DC63F"/>
<path d="M10.4761 8.61467L11.8835 4.79443L8.32228 6.44584C4.59541 8.174 2.96552 12.6126 4.68481 16.3454L6.13541 19.1196L6.13082 16.0782C6.12735 13.7936 7.01374 11.6445 8.62672 10.0266C9.18472 9.46683 9.80667 8.99403 10.4761 8.61467Z" fill="#8DC63F"/>
<path d="M18.6024 8.60336C14.5694 8.65 12.1328 8.14119 9.40377 10.8011C7.99771 12.2115 7.22504 14.0849 7.22804 16.0764L7.23404 20.0315L18.6024 8.60336Z" fill="#8DC63F"/>
<path d="M17.2063 18.5967C18.6124 17.1864 19.3851 15.3129 19.3821 13.3214L19.3761 9.38031L8.02173 20.7944L11.9377 20.7885C13.9292 20.7855 15.8003 20.0071 17.2063 18.5967Z" fill="#8DC63F"/>
</svg>
